<svg id="svg" version="1.1" width="400" height="87.71929824561404" viewBox="0 0 400 87.71929824561404" xmlns="http://www.w3.org/2000/svg" xmlns:xlink="http://www.w3.org/1999/xlink" ><g id="svgg"><path id="path0" d="" stroke="none" fill="#ffffff" fill-rule="evenodd"></path><path id="path1" d="M38.408 9.250 C 38.408 12.275,38.430 13.536,38.458 12.052 C 38.486 10.568,38.486 8.093,38.458 6.552 C 38.431 5.011,38.408 6.225,38.408 9.250 M144.917 17.500 C 144.751 17.683,144.699 17.833,144.802 17.833 C 144.904 17.833,145.069 17.683,145.167 17.500 C 145.265 17.317,145.317 17.167,145.282 17.167 C 145.247 17.167,145.083 17.317,144.917 17.500 M345.747 44.083 C 345.747 55.083,345.767 59.608,345.792 54.138 C 345.816 48.668,345.816 39.668,345.792 34.138 C 345.767 28.608,345.747 33.083,345.747 44.083 M131.000 36.277 C 131.000 36.367,131.206 36.624,131.458 36.846 L 131.917 37.250 131.500 36.750 C 131.271 36.475,131.065 36.219,131.042 36.181 C 131.019 36.142,131.000 36.186,131.000 36.277 M6.531 37.791 C 8.061 37.819,10.611 37.819,12.198 37.791 C 13.785 37.764,12.533 37.742,9.417 37.741 C 6.300 37.741,5.001 37.764,6.531 37.791 M69.635 37.791 C 71.131 37.819,73.531 37.819,74.969 37.791 C 76.407 37.764,75.183 37.741,72.250 37.741 C 69.317 37.741,68.140 37.764,69.635 37.791 M213.333 51.833 C 213.431 52.017,213.596 52.167,213.698 52.167 C 213.801 52.167,213.749 52.017,213.583 51.833 C 213.417 51.650,213.253 51.500,213.218 51.500 C 213.183 51.500,213.235 51.650,213.333 51.833 M199.167 57.333 C 199.378 57.517,199.589 57.667,199.635 57.667 C 199.681 57.667,199.583 57.517,199.417 57.333 C 199.251 57.150,199.040 57.000,198.949 57.000 C 198.857 57.000,198.955 57.150,199.167 57.333 M38.408 70.833 C 38.408 73.904,38.431 75.160,38.458 73.625 C 38.486 72.090,38.486 69.577,38.458 68.042 C 38.431 66.506,38.408 67.762,38.408 70.833 " stroke="none" fill="#333399" fill-rule="evenodd"></path><path id="path2" d="" stroke="none" fill="#0000ff" fill-rule="evenodd"></path><path id="path3" d="M1.667 0.167 C 1.667 0.258,1.558 0.333,1.424 0.333 C 1.155 0.333,0.333 1.092,0.333 1.341 C 0.333 1.428,0.258 1.500,0.167 1.500 C 0.056 1.500,0.000 14.444,0.000 40.000 C 0.000 65.556,0.056 78.500,0.167 78.500 C 0.258 78.500,0.333 78.620,0.333 78.766 C 0.333 78.912,0.483 79.070,0.667 79.118 C 0.850 79.166,1.000 79.309,1.000 79.436 C 1.000 79.563,1.102 79.667,1.228 79.667 C 1.353 79.667,1.646 79.817,1.879 80.000 C 2.548 80.526,79.427 80.526,79.878 80.000 C 80.035 79.817,80.280 79.667,80.423 79.667 C 80.566 79.667,80.780 79.437,80.898 79.155 C 81.016 78.874,81.181 78.652,81.265 78.662 C 81.348 78.672,81.441 78.527,81.470 78.340 C 81.499 78.152,81.668 77.922,81.845 77.827 C 82.161 77.658,82.167 77.032,82.167 40.174 C 82.167 2.605,82.162 2.167,81.732 2.167 C 81.604 2.167,81.500 2.059,81.500 1.928 C 81.500 1.447,80.751 0.496,80.292 0.394 C 80.040 0.338,79.833 0.226,79.833 0.146 C 79.833 0.063,62.972 0.000,40.750 0.000 C 14.806 0.000,1.667 0.056,1.667 0.167 M257.667 32.583 L 257.667 65.167 262.261 65.167 C 265.109 65.167,266.978 65.101,267.178 64.994 C 267.492 64.826,267.500 64.507,267.500 52.077 C 267.500 41.295,267.536 39.333,267.732 39.333 C 268.021 39.333,268.167 38.971,268.167 38.257 C 268.167 37.955,268.279 37.614,268.417 37.500 C 268.554 37.386,268.667 37.111,268.667 36.889 C 268.667 36.668,268.817 36.325,269.000 36.128 C 269.183 35.931,269.333 35.680,269.333 35.570 C 269.333 35.459,269.446 35.326,269.583 35.273 C 269.721 35.220,269.833 35.062,269.833 34.922 C 269.833 34.782,269.946 34.667,270.083 34.667 C 270.221 34.667,270.333 34.559,270.333 34.428 C 270.333 34.297,270.483 34.142,270.667 34.083 C 270.850 34.025,271.000 33.870,271.000 33.739 C 271.000 33.607,271.115 33.500,271.255 33.500 C 271.396 33.500,271.551 33.394,271.601 33.265 C 271.650 33.136,271.873 32.984,272.095 32.929 C 272.318 32.873,272.500 32.753,272.500 32.663 C 272.500 32.574,272.620 32.500,272.766 32.500 C 272.912 32.500,273.231 32.361,273.474 32.190 C 273.741 32.004,274.346 31.843,274.996 31.786 C 275.589 31.734,276.102 31.611,276.135 31.512 C 276.234 31.214,278.777 31.280,278.894 31.583 C 278.964 31.767,279.255 31.833,279.995 31.833 C 280.777 31.833,281.000 31.889,281.000 32.083 C 281.000 32.221,281.056 32.339,281.125 32.346 C 281.714 32.404,282.097 32.548,282.213 32.755 C 282.288 32.890,282.459 33.000,282.592 33.000 C 282.725 33.000,282.833 33.112,282.833 33.250 C 282.833 33.387,282.946 33.500,283.083 33.500 C 283.221 33.500,283.333 33.620,283.333 33.766 C 283.333 33.912,283.483 34.070,283.667 34.118 C 283.850 34.166,284.000 34.315,284.000 34.448 C 284.000 34.581,284.112 34.803,284.250 34.940 C 284.387 35.078,284.500 35.321,284.500 35.480 C 284.500 35.640,284.650 35.931,284.833 36.128 C 285.075 36.388,285.167 36.716,285.167 37.326 C 285.167 37.961,285.228 38.167,285.416 38.167 C 285.634 38.167,285.670 39.816,285.707 51.625 L 285.750 65.083 290.621 65.128 L 295.492 65.172 295.586 64.794 C 295.863 63.679,295.583 35.034,295.292 34.713 C 295.086 34.485,295.000 34.112,295.000 33.445 C 295.000 32.925,294.930 32.500,294.845 32.500 C 294.672 32.500,294.491 32.022,294.420 31.376 C 294.395 31.143,294.252 30.885,294.104 30.801 C 293.955 30.718,293.833 30.466,293.833 30.242 C 293.833 30.017,293.683 29.683,293.500 29.500 C 293.317 29.317,293.167 29.017,293.167 28.833 C 293.167 28.648,293.056 28.500,292.917 28.500 C 292.778 28.500,292.667 28.352,292.667 28.167 C 292.667 27.983,292.559 27.833,292.428 27.833 C 292.297 27.833,292.142 27.683,292.083 27.500 C 292.025 27.317,291.878 27.167,291.757 27.167 C 291.635 27.167,291.490 26.983,291.434 26.759 C 291.377 26.535,291.107 26.218,290.832 26.056 C 290.558 25.894,290.333 25.703,290.333 25.631 C 290.333 25.559,290.255 25.500,290.158 25.500 C 290.062 25.500,289.713 25.238,289.383 24.917 C 289.043 24.586,288.613 24.333,288.391 24.333 C 288.160 24.333,288.000 24.234,288.000 24.091 C 288.000 23.947,287.768 23.805,287.428 23.741 C 287.114 23.682,286.816 23.529,286.767 23.400 C 286.705 23.240,286.396 23.167,285.781 23.167 C 285.097 23.167,284.814 23.088,284.583 22.833 C 284.319 22.541,284.070 22.500,282.578 22.500 C 281.357 22.500,280.822 22.437,280.689 22.276 C 280.431 21.965,279.015 21.949,278.439 22.250 C 278.113 22.421,277.463 22.500,276.382 22.500 C 274.942 22.500,274.794 22.530,274.715 22.833 C 274.642 23.114,274.488 23.167,273.748 23.167 C 273.120 23.167,272.842 23.238,272.773 23.417 C 272.720 23.554,272.484 23.667,272.248 23.667 C 272.012 23.667,271.658 23.817,271.462 24.000 C 271.265 24.183,270.973 24.333,270.814 24.333 C 270.654 24.333,270.411 24.446,270.274 24.583 C 270.136 24.721,269.899 24.833,269.746 24.833 C 269.594 24.833,269.430 24.983,269.382 25.167 C 269.334 25.350,269.188 25.500,269.059 25.500 C 268.929 25.500,268.780 25.613,268.727 25.750 C 268.674 25.887,268.545 26.000,268.439 26.000 C 268.333 26.000,268.153 26.150,268.039 26.333 C 267.525 27.156,267.500 26.557,267.500 13.333 L 267.500 0.000 262.583 0.000 L 257.667 0.000 257.667 32.583 M165.198 2.133 C 164.986 2.166,164.772 2.299,164.722 2.430 C 164.669 2.569,164.402 2.667,164.077 2.667 C 163.669 2.667,163.495 2.755,163.417 3.000 C 163.351 3.207,163.164 3.333,162.923 3.333 C 162.710 3.333,162.492 3.446,162.440 3.583 C 162.387 3.721,162.229 3.833,162.089 3.833 C 161.948 3.833,161.833 3.943,161.833 4.077 C 161.833 4.212,161.683 4.402,161.500 4.500 C 161.317 4.598,161.167 4.777,161.167 4.897 C 161.167 5.017,161.017 5.289,160.833 5.500 C 160.650 5.711,160.500 6.090,160.500 6.341 C 160.500 6.593,160.388 6.841,160.250 6.894 C 160.050 6.970,160.000 7.336,160.000 8.724 C 160.000 10.063,160.057 10.507,160.250 10.667 C 160.387 10.781,160.500 11.009,160.500 11.173 C 160.500 11.651,160.683 12.000,160.934 12.000 C 161.070 12.000,161.167 12.171,161.167 12.411 C 161.167 12.651,161.305 12.896,161.500 13.000 C 161.683 13.098,161.833 13.288,161.833 13.423 C 161.833 13.557,161.908 13.667,162.000 13.667 C 162.092 13.667,162.317 13.817,162.500 14.000 C 162.683 14.183,162.983 14.333,163.167 14.333 C 163.352 14.333,163.500 14.444,163.500 14.583 C 163.500 14.764,163.685 14.833,164.167 14.833 C 164.533 14.833,164.833 14.896,164.833 14.973 C 164.833 15.563,167.940 15.727,168.500 15.167 C 168.683 14.983,169.049 14.833,169.313 14.833 C 169.577 14.833,169.886 14.721,170.000 14.583 C 170.114 14.446,170.343 14.333,170.509 14.333 C 170.675 14.333,170.858 14.183,170.917 14.000 C 170.975 13.817,171.167 13.667,171.345 13.667 C 171.522 13.667,171.667 13.562,171.667 13.434 C 171.667 13.307,171.779 13.159,171.917 13.106 C 172.054 13.054,172.167 12.896,172.167 12.755 C 172.167 12.615,172.271 12.500,172.399 12.500 C 172.650 12.500,172.833 12.151,172.833 11.671 C 172.833 11.505,172.946 11.326,173.083 11.273 C 173.290 11.194,173.333 10.754,173.333 8.750 C 173.333 6.746,173.290 6.306,173.083 6.227 C 172.946 6.174,172.833 5.995,172.833 5.829 C 172.833 5.349,172.650 5.000,172.399 5.000 C 172.271 5.000,172.167 4.887,172.167 4.750 C 172.167 4.612,172.054 4.500,171.917 4.500 C 171.779 4.500,171.667 4.380,171.667 4.234 C 171.667 4.088,171.517 3.930,171.333 3.882 C 171.150 3.834,171.000 3.691,171.000 3.564 C 171.000 3.437,170.890 3.333,170.756 3.333 C 170.622 3.333,170.431 3.183,170.333 3.000 C 170.196 2.743,169.984 2.667,169.411 2.667 C 168.860 2.667,168.667 2.602,168.667 2.417 C 168.667 2.279,168.535 2.154,168.375 2.139 C 167.769 2.080,165.568 2.077,165.198 2.133 M38.500 9.391 C 38.500 16.106,38.262 15.533,41.019 15.464 L 42.917 15.417 42.960 9.625 L 43.004 3.833 60.238 3.833 C 71.572 3.833,77.491 3.890,77.528 4.000 C 77.558 4.091,77.564 11.744,77.540 21.005 L 77.497 37.844 71.835 37.827 C 68.721 37.817,66.097 37.857,66.003 37.915 C 65.653 38.131,65.791 41.965,66.156 42.161 C 66.359 42.270,68.509 42.333,71.989 42.333 L 77.500 42.333 77.500 59.333 L 77.500 76.333 60.250 76.333 L 43.000 76.333 43.000 70.500 L 43.000 64.667 41.000 64.667 C 39.703 64.667,39.000 64.729,39.000 64.843 C 39.000 64.940,38.933 64.978,38.851 64.927 C 38.545 64.738,38.500 65.492,38.500 70.847 L 38.500 76.333 21.167 76.333 L 3.833 76.333 3.833 59.335 L 3.833 42.338 9.625 42.294 L 15.417 42.250 15.463 40.042 C 15.499 38.337,15.461 37.832,15.297 37.829 C 15.179 37.827,12.552 37.829,9.458 37.833 L 3.833 37.841 3.833 20.837 L 3.833 3.833 21.167 3.833 L 38.500 3.833 38.500 9.391 M107.416 5.375 C 107.366 5.581,107.346 19.363,107.371 36.000 L 107.417 66.250 112.583 66.250 L 117.750 66.250 117.793 52.141 C 117.835 38.137,117.838 38.032,118.168 38.119 C 118.351 38.167,118.500 38.346,118.500 38.519 C 118.500 38.692,118.575 38.833,118.667 38.833 C 118.877 38.833,120.167 40.113,120.167 40.322 C 120.167 40.408,120.317 40.525,120.500 40.583 C 120.683 40.642,120.833 40.788,120.833 40.908 C 120.833 41.029,120.983 41.167,121.167 41.215 C 121.350 41.263,121.500 41.422,121.500 41.568 C 121.500 41.714,121.612 41.833,121.750 41.833 C 121.888 41.833,122.000 41.946,122.000 42.083 C 122.000 42.221,122.107 42.333,122.239 42.333 C 122.370 42.333,122.525 42.483,122.583 42.667 C 122.642 42.850,122.797 43.000,122.928 43.000 C 123.059 43.000,123.167 43.112,123.167 43.250 C 123.167 43.387,123.279 43.500,123.417 43.500 C 123.554 43.500,123.667 43.606,123.667 43.735 C 123.667 43.865,123.897 44.165,124.179 44.402 C 124.461 44.639,124.646 44.833,124.589 44.833 C 124.533 44.833,124.771 45.127,125.118 45.486 C 126.809 47.232,127.333 47.824,127.333 47.988 C 127.333 48.086,127.405 48.167,127.492 48.167 C 127.704 48.167,128.500 48.970,128.500 49.184 C 128.500 49.277,128.580 49.304,128.678 49.243 C 128.776 49.183,128.897 49.290,128.947 49.483 C 128.998 49.676,129.150 49.833,129.285 49.833 C 129.420 49.833,129.570 49.983,129.618 50.167 C 129.666 50.350,129.809 50.500,129.936 50.500 C 130.063 50.500,130.167 50.585,130.167 50.689 C 130.167 50.912,130.946 51.667,131.175 51.667 C 131.262 51.667,131.333 51.750,131.333 51.852 C 131.333 52.097,132.033 52.827,132.272 52.830 C 132.376 52.832,132.500 52.983,132.548 53.167 C 132.596 53.350,132.759 53.500,132.911 53.500 C 133.064 53.500,133.137 53.579,133.076 53.678 C 133.016 53.776,133.124 53.897,133.317 53.947 C 133.509 53.998,133.667 54.113,133.667 54.204 C 133.667 54.445,134.381 55.160,134.625 55.164 C 134.740 55.165,134.833 55.267,134.833 55.389 C 134.833 55.595,135.340 56.180,137.625 58.613 C 138.106 59.126,138.500 59.610,138.500 59.689 C 138.500 59.768,138.612 59.833,138.750 59.833 C 138.887 59.833,139.000 59.897,139.000 59.976 C 139.000 60.185,139.789 61.000,139.992 61.000 C 140.088 61.000,140.167 61.083,140.167 61.185 C 140.167 61.441,140.871 62.160,141.125 62.164 C 141.240 62.165,141.333 62.317,141.333 62.500 C 141.333 62.683,141.438 62.833,141.566 62.833 C 141.693 62.833,141.841 62.946,141.894 63.083 C 141.946 63.221,142.104 63.333,142.245 63.333 C 142.385 63.333,142.500 63.448,142.500 63.589 C 142.500 63.729,142.612 63.887,142.750 63.940 C 142.887 63.992,143.000 64.140,143.000 64.268 C 143.000 64.396,143.150 64.500,143.333 64.500 C 143.556 64.500,143.667 64.611,143.667 64.833 C 143.667 65.017,143.738 65.167,143.826 65.167 C 144.032 65.167,144.833 65.968,144.833 66.174 C 144.833 66.273,147.591 66.333,152.083 66.333 L 159.333 66.333 159.333 65.828 C 159.333 65.533,159.229 65.283,159.083 65.227 C 158.946 65.174,158.833 65.067,158.833 64.990 C 158.833 64.796,158.023 64.000,157.826 64.000 C 157.738 64.000,157.667 63.931,157.667 63.846 C 157.667 63.676,156.180 62.068,153.458 59.295 C 152.473 58.291,151.667 57.401,151.667 57.318 C 151.667 57.235,151.559 57.167,151.428 57.167 C 151.297 57.167,151.142 57.017,151.083 56.833 C 151.025 56.650,150.870 56.500,150.739 56.500 C 150.607 56.500,150.500 56.429,150.500 56.342 C 150.500 56.112,149.745 55.333,149.523 55.333 C 149.418 55.333,149.333 55.262,149.333 55.175 C 149.333 54.956,148.583 54.167,148.375 54.167 C 148.282 54.167,148.164 54.009,148.114 53.817 C 148.064 53.624,147.948 53.513,147.857 53.569 C 147.765 53.625,147.643 53.520,147.584 53.336 C 147.525 53.151,147.370 53.000,147.239 53.000 C 147.107 53.000,147.000 52.917,147.000 52.815 C 147.000 52.559,146.296 51.840,146.042 51.836 C 145.927 51.835,145.833 51.683,145.833 51.500 C 145.833 51.317,145.729 51.167,145.601 51.167 C 145.473 51.167,145.326 51.054,145.273 50.917 C 145.220 50.779,145.062 50.667,144.922 50.667 C 144.778 50.667,144.667 50.522,144.667 50.333 C 144.667 50.148,144.556 50.000,144.417 50.000 C 144.279 50.000,144.167 49.887,144.167 49.750 C 144.167 49.611,144.019 49.500,143.833 49.500 C 143.611 49.500,143.500 49.389,143.500 49.167 C 143.500 48.983,143.396 48.833,143.268 48.833 C 143.140 48.833,142.992 48.721,142.940 48.583 C 142.887 48.446,142.729 48.333,142.589 48.333 C 142.448 48.333,142.333 48.218,142.333 48.078 C 142.333 47.938,142.221 47.780,142.083 47.727 C 141.946 47.674,141.833 47.527,141.833 47.399 C 141.833 47.271,141.683 47.167,141.500 47.167 C 141.278 47.167,141.167 47.056,141.167 46.833 C 141.167 46.648,141.056 46.500,140.917 46.500 C 140.779 46.500,140.667 46.387,140.667 46.250 C 140.667 46.112,140.603 46.000,140.524 46.000 C 140.326 46.000,139.500 45.216,139.500 45.027 C 139.500 44.942,139.350 44.833,139.167 44.785 C 138.983 44.737,138.833 44.578,138.833 44.432 C 138.833 44.286,138.762 44.167,138.674 44.167 C 138.468 44.167,137.667 43.366,137.667 43.159 C 137.667 43.072,137.554 43.000,137.417 43.000 C 137.279 43.000,137.167 42.893,137.167 42.761 C 137.167 42.630,137.017 42.475,136.833 42.417 C 136.650 42.358,136.500 42.203,136.500 42.072 C 136.500 41.941,136.387 41.833,136.250 41.833 C 136.112 41.833,136.000 41.714,136.000 41.568 C 136.000 41.422,135.850 41.263,135.667 41.215 C 135.483 41.167,135.333 41.024,135.333 40.897 C 135.333 40.770,135.221 40.667,135.083 40.667 C 134.946 40.667,134.833 40.547,134.833 40.401 C 134.833 40.255,134.683 40.096,134.500 40.048 C 134.317 40.000,134.167 39.871,134.167 39.760 C 134.167 39.650,133.810 39.220,133.375 38.806 C 132.223 37.709,128.929 34.204,128.863 34.004 C 128.831 33.910,128.699 33.833,128.569 33.833 C 128.440 33.833,128.333 33.687,128.333 33.509 C 128.333 33.150,129.013 32.333,129.311 32.333 C 129.415 32.333,129.500 32.255,129.500 32.159 C 129.500 31.956,130.315 31.167,130.524 31.167 C 130.603 31.167,130.667 31.054,130.667 30.917 C 130.667 30.779,130.730 30.667,130.807 30.667 C 131.040 30.667,131.833 29.921,131.833 29.703 C 131.833 29.591,131.927 29.499,132.042 29.497 C 132.296 29.494,133.000 28.774,133.000 28.518 C 133.000 28.417,133.150 28.333,133.333 28.333 C 133.519 28.333,133.667 28.222,133.667 28.083 C 133.667 27.946,133.739 27.833,133.827 27.833 C 133.915 27.833,134.334 27.496,134.759 27.083 C 135.183 26.671,135.603 26.333,135.692 26.333 C 135.780 26.333,135.808 26.261,135.753 26.172 C 135.698 26.083,135.844 25.962,136.077 25.903 C 136.309 25.845,136.500 25.730,136.500 25.649 C 136.500 25.446,137.045 24.916,137.388 24.784 C 137.541 24.725,137.667 24.562,137.667 24.422 C 137.667 24.282,137.753 24.167,137.858 24.167 C 137.964 24.167,138.409 23.792,138.849 23.333 C 139.288 22.875,139.727 22.500,139.824 22.500 C 139.921 22.500,140.000 22.350,140.000 22.167 C 140.000 21.944,140.111 21.833,140.333 21.833 C 140.517 21.833,140.667 21.729,140.667 21.601 C 140.667 21.473,140.779 21.326,140.917 21.273 C 141.054 21.220,141.167 21.062,141.167 20.922 C 141.167 20.782,141.282 20.667,141.422 20.667 C 141.562 20.667,141.720 20.554,141.773 20.417 C 141.826 20.279,141.973 20.167,142.101 20.167 C 142.229 20.167,142.333 20.017,142.333 19.833 C 142.333 19.611,142.444 19.500,142.667 19.500 C 142.852 19.500,143.000 19.389,143.000 19.250 C 143.000 19.112,143.096 19.000,143.213 19.000 C 143.330 19.000,143.535 18.850,143.667 18.667 C 143.799 18.483,143.976 18.333,144.060 18.333 C 144.144 18.333,144.437 18.071,144.711 17.750 C 144.985 17.429,145.294 17.167,145.397 17.167 C 145.501 17.167,145.827 16.904,146.121 16.583 C 146.415 16.262,146.734 16.000,146.828 16.000 C 146.923 16.000,147.000 15.893,147.000 15.761 C 147.000 15.630,147.150 15.475,147.333 15.417 C 147.517 15.358,147.667 15.203,147.667 15.072 C 147.667 14.941,147.779 14.833,147.917 14.833 C 148.054 14.833,148.167 14.721,148.167 14.583 C 148.167 14.446,148.286 14.333,148.432 14.333 C 148.578 14.333,148.737 14.183,148.785 14.000 C 148.833 13.817,148.976 13.667,149.103 13.667 C 149.230 13.667,149.333 13.559,149.333 13.428 C 149.333 13.297,149.483 13.142,149.667 13.083 C 149.850 13.025,150.000 12.870,150.000 12.739 C 150.000 12.607,150.115 12.500,150.255 12.500 C 150.396 12.500,150.554 12.387,150.606 12.250 C 150.659 12.112,150.807 12.000,150.934 12.000 C 151.062 12.000,151.167 11.850,151.167 11.667 C 151.167 11.478,151.278 11.333,151.422 11.333 C 151.562 11.333,151.720 11.221,151.773 11.083 C 151.826 10.946,151.973 10.833,152.101 10.833 C 152.229 10.833,152.333 10.683,152.333 10.500 C 152.333 10.278,152.444 10.167,152.667 10.167 C 152.850 10.167,153.000 10.090,153.000 9.996 C 153.000 9.903,153.188 9.741,153.417 9.636 C 153.646 9.532,153.833 9.346,153.833 9.223 C 153.833 9.100,153.902 9.000,153.986 9.000 C 154.069 9.000,154.408 8.738,154.739 8.417 C 155.069 8.096,155.386 7.833,155.442 7.833 C 155.590 7.833,156.333 7.009,156.333 6.844 C 156.333 6.768,156.491 6.664,156.683 6.614 C 156.876 6.564,156.989 6.451,156.935 6.363 C 156.881 6.276,156.986 6.166,157.169 6.118 C 157.409 6.055,157.500 5.890,157.500 5.516 L 157.500 5.000 150.318 5.000 C 143.276 5.000,143.134 5.007,143.048 5.333 C 143.000 5.517,142.857 5.667,142.731 5.667 C 142.604 5.667,142.500 5.779,142.500 5.917 C 142.500 6.054,142.393 6.167,142.261 6.167 C 142.130 6.167,141.975 6.317,141.917 6.500 C 141.858 6.683,141.703 6.833,141.572 6.833 C 141.441 6.833,141.333 6.946,141.333 7.083 C 141.333 7.221,141.214 7.333,141.068 7.333 C 140.922 7.333,140.763 7.483,140.715 7.667 C 140.667 7.850,140.524 8.000,140.397 8.000 C 140.270 8.000,140.167 8.112,140.167 8.250 C 140.167 8.387,140.047 8.500,139.901 8.500 C 139.755 8.500,139.596 8.650,139.548 8.833 C 139.500 9.017,139.357 9.167,139.231 9.167 C 139.104 9.167,139.000 9.279,139.000 9.417 C 139.000 9.556,138.852 9.667,138.667 9.667 C 138.449 9.667,138.333 9.778,138.333 9.988 C 138.333 10.164,138.226 10.333,138.095 10.363 C 137.850 10.418,136.217 11.847,134.463 13.542 C 133.917 14.069,133.402 14.500,133.319 14.500 C 133.235 14.500,133.167 14.612,133.167 14.750 C 133.167 14.887,133.082 15.000,132.977 15.000 C 132.755 15.000,132.000 15.779,132.000 16.009 C 132.000 16.096,131.906 16.168,131.792 16.170 C 131.538 16.173,130.833 16.892,130.833 17.148 C 130.833 17.250,130.753 17.333,130.656 17.333 C 130.558 17.333,130.113 17.708,129.667 18.167 C 129.220 18.625,128.775 19.000,128.677 19.000 C 128.580 19.000,128.500 19.150,128.500 19.333 C 128.500 19.556,128.389 19.667,128.167 19.667 C 127.981 19.667,127.833 19.778,127.833 19.917 C 127.833 20.054,127.721 20.167,127.583 20.167 C 127.446 20.167,127.333 20.231,127.333 20.309 C 127.333 20.508,126.549 21.333,126.361 21.333 C 126.275 21.333,126.166 21.483,126.118 21.667 C 126.070 21.850,125.912 22.000,125.766 22.000 C 125.620 22.000,125.500 22.113,125.500 22.250 C 125.500 22.387,125.393 22.500,125.261 22.500 C 125.130 22.500,124.975 22.650,124.917 22.833 C 124.858 23.017,124.703 23.167,124.572 23.167 C 124.441 23.167,124.333 23.270,124.333 23.397 C 124.333 23.524,124.183 23.667,124.000 23.715 C 123.817 23.763,123.667 23.922,123.667 24.068 C 123.667 24.214,123.583 24.333,123.480 24.333 C 123.222 24.333,122.168 25.279,122.290 25.401 C 122.344 25.455,122.303 25.500,122.197 25.500 C 122.092 25.500,121.736 25.763,121.405 26.083 C 121.075 26.404,120.774 26.667,120.736 26.667 C 120.698 26.667,120.257 27.079,119.757 27.583 C 119.257 28.087,118.770 28.500,118.674 28.500 C 118.578 28.500,118.500 28.594,118.500 28.710 C 118.500 28.825,118.350 29.013,118.167 29.128 C 117.834 29.335,117.833 29.294,117.833 17.168 L 117.833 5.000 112.670 5.000 L 107.506 5.000 107.416 5.375 M186.542 12.777 C 186.381 12.842,186.333 14.098,186.333 18.264 L 186.333 23.667 182.117 23.667 C 179.059 23.667,177.845 23.722,177.700 23.867 C 177.360 24.206,177.420 32.267,177.764 32.399 C 177.909 32.454,179.896 32.500,182.180 32.500 L 186.333 32.500 186.350 43.458 C 186.368 55.375,186.364 55.219,186.631 55.540 C 186.734 55.665,186.827 56.555,186.845 57.588 C 186.879 59.594,186.924 59.833,187.268 59.833 C 187.422 59.833,187.500 60.029,187.500 60.417 C 187.500 60.824,187.575 61.000,187.750 61.000 C 187.887 61.000,188.000 61.144,188.000 61.320 C 188.000 61.816,188.180 62.167,188.434 62.167 C 188.562 62.167,188.667 62.326,188.667 62.522 C 188.667 63.011,190.138 64.500,190.621 64.500 C 190.889 64.500,191.000 64.598,191.000 64.833 C 191.000 65.072,191.111 65.167,191.391 65.167 C 191.606 65.167,191.917 65.317,192.083 65.500 C 192.249 65.683,192.590 65.833,192.841 65.833 C 193.093 65.833,193.341 65.945,193.394 66.083 C 193.466 66.272,193.772 66.333,194.648 66.333 C 195.311 66.333,195.831 66.408,195.864 66.509 C 195.975 66.843,197.274 66.986,199.675 66.931 C 202.141 66.874,203.068 66.745,202.906 66.482 C 202.855 66.400,203.405 66.333,204.143 66.333 C 204.927 66.333,205.496 66.261,205.531 66.158 C 205.563 66.061,205.902 65.912,206.285 65.826 C 206.667 65.740,207.172 65.492,207.407 65.274 L 207.833 64.878 207.833 60.721 C 207.833 56.299,207.696 55.449,207.107 56.208 C 206.965 56.391,206.654 56.500,206.273 56.500 C 205.845 56.500,205.667 56.574,205.667 56.750 C 205.667 56.935,205.473 57.000,204.923 57.000 C 204.349 57.000,204.138 57.076,204.000 57.333 C 203.729 57.840,199.750 57.840,199.167 57.333 C 198.955 57.150,198.681 57.000,198.558 57.000 C 198.434 57.000,198.333 56.929,198.333 56.842 C 198.333 56.756,198.127 56.586,197.875 56.466 C 197.569 56.320,197.399 56.095,197.364 55.790 C 197.335 55.539,197.215 55.333,197.096 55.333 C 196.953 55.333,196.847 54.965,196.778 54.227 C 196.721 53.619,196.561 52.946,196.421 52.733 C 196.200 52.396,196.167 51.034,196.167 42.425 L 196.167 32.504 201.708 32.461 L 207.250 32.417 207.297 28.417 C 207.323 26.217,207.303 24.248,207.252 24.042 L 207.160 23.667 201.663 23.667 L 196.167 23.667 196.167 18.167 L 196.167 12.667 191.458 12.680 C 188.869 12.687,186.656 12.731,186.542 12.777 M37.833 23.417 C 37.833 23.612,37.605 23.667,36.781 23.667 C 35.960 23.667,35.651 23.740,35.372 24.000 C 35.152 24.204,34.784 24.333,34.418 24.333 C 34.043 24.333,33.787 24.426,33.727 24.583 C 33.673 24.724,33.425 24.833,33.160 24.833 C 32.836 24.833,32.656 24.937,32.583 25.167 C 32.510 25.398,32.331 25.500,31.997 25.500 C 31.733 25.500,31.457 25.594,31.383 25.708 C 31.310 25.823,31.100 26.003,30.917 26.109 C 30.733 26.216,30.602 26.384,30.625 26.484 C 30.648 26.585,30.477 26.667,30.245 26.667 C 30.013 26.667,29.780 26.779,29.727 26.917 C 29.674 27.054,29.532 27.167,29.410 27.167 C 29.289 27.167,29.142 27.317,29.083 27.500 C 29.025 27.683,28.911 27.833,28.830 27.833 C 28.631 27.833,27.833 28.640,27.833 28.841 C 27.833 28.928,27.721 29.000,27.583 29.000 C 27.446 29.000,27.333 29.087,27.333 29.194 C 27.333 29.301,27.221 29.507,27.084 29.653 C 26.560 30.209,26.000 30.972,26.000 31.131 C 26.000 31.223,25.887 31.341,25.750 31.394 C 25.613 31.446,25.500 31.611,25.500 31.760 C 25.500 31.909,25.350 32.221,25.167 32.455 C 24.983 32.688,24.833 33.056,24.833 33.272 C 24.833 33.512,24.735 33.667,24.583 33.667 C 24.403 33.667,24.333 33.852,24.333 34.333 C 24.333 34.815,24.264 35.000,24.083 35.000 C 23.946 35.000,23.831 35.056,23.827 35.125 C 23.775 36.223,23.580 37.305,23.397 37.513 C 23.106 37.845,23.055 43.500,23.343 43.500 C 23.440 43.500,23.473 43.575,23.417 43.667 C 23.360 43.758,23.383 43.833,23.467 43.833 C 23.552 43.833,23.661 44.332,23.710 44.942 C 23.772 45.717,23.879 46.096,24.066 46.200 C 24.231 46.293,24.333 46.571,24.333 46.930 C 24.333 47.292,24.427 47.547,24.583 47.606 C 24.721 47.659,24.833 47.844,24.833 48.018 C 24.833 48.191,24.983 48.483,25.167 48.667 C 25.350 48.850,25.500 49.085,25.500 49.189 C 25.500 49.529,26.189 50.500,26.430 50.500 C 26.560 50.500,26.667 50.638,26.667 50.808 C 26.667 50.977,26.817 51.251,27.000 51.417 C 27.183 51.583,27.333 51.819,27.333 51.942 C 27.333 52.066,27.437 52.167,27.564 52.167 C 27.691 52.167,27.834 52.317,27.882 52.500 C 27.930 52.683,28.088 52.833,28.234 52.833 C 28.380 52.833,28.500 52.948,28.500 53.089 C 28.500 53.229,28.631 53.392,28.792 53.451 C 28.952 53.510,29.143 53.658,29.217 53.779 C 29.290 53.901,29.503 54.000,29.691 54.000 C 29.891 54.000,30.067 54.137,30.118 54.333 C 30.167 54.518,30.346 54.667,30.519 54.667 C 30.692 54.667,30.833 54.779,30.833 54.917 C 30.833 55.056,30.981 55.167,31.167 55.167 C 31.350 55.167,31.500 55.276,31.500 55.409 C 31.500 55.553,31.732 55.695,32.072 55.759 C 32.386 55.818,32.684 55.971,32.733 56.100 C 32.783 56.228,33.009 56.333,33.236 56.333 C 33.464 56.333,33.716 56.451,33.797 56.595 C 33.879 56.743,34.265 56.899,34.680 56.953 C 35.085 57.006,35.477 57.150,35.550 57.274 C 35.645 57.436,36.086 57.500,37.101 57.500 C 37.881 57.500,38.480 57.564,38.432 57.642 C 38.081 58.209,42.994 58.357,43.407 57.792 C 43.577 57.559,43.872 57.500,44.873 57.500 C 45.783 57.500,46.183 57.432,46.333 57.250 C 46.447 57.112,46.795 57.000,47.105 57.000 C 47.464 57.000,47.774 56.878,47.955 56.667 C 48.112 56.483,48.406 56.333,48.608 56.333 C 48.811 56.333,49.089 56.221,49.226 56.083 C 49.364 55.946,49.594 55.833,49.738 55.833 C 49.882 55.833,50.150 55.683,50.333 55.500 C 50.517 55.317,50.779 55.167,50.917 55.167 C 51.054 55.167,51.167 55.063,51.167 54.936 C 51.167 54.809,51.317 54.666,51.500 54.618 C 51.683 54.570,51.833 54.420,51.833 54.284 C 51.833 54.148,52.032 53.986,52.274 53.925 C 52.889 53.771,55.330 51.169,55.209 50.797 C 55.188 50.731,55.319 50.597,55.502 50.499 C 55.684 50.401,55.833 50.212,55.833 50.077 C 55.833 49.943,55.946 49.833,56.083 49.833 C 56.300 49.833,56.415 49.533,56.355 49.130 C 56.345 49.064,56.486 48.930,56.668 48.832 C 56.862 48.729,57.000 48.484,57.000 48.244 C 57.000 48.018,57.150 47.683,57.333 47.500 C 57.517 47.317,57.667 46.947,57.667 46.679 C 57.667 46.410,57.779 46.078,57.917 45.940 C 58.085 45.772,58.167 45.353,58.167 44.655 C 58.167 43.862,58.235 43.570,58.458 43.407 C 58.715 43.219,58.750 42.877,58.750 40.585 C 58.750 38.274,58.717 37.958,58.458 37.813 C 58.225 37.683,58.167 37.422,58.167 36.504 C 58.167 35.765,58.087 35.277,57.942 35.133 C 57.819 35.009,57.665 34.629,57.601 34.287 C 57.530 33.909,57.390 33.667,57.242 33.667 C 57.076 33.667,57.000 33.483,57.000 33.083 C 57.000 32.697,56.922 32.500,56.769 32.500 C 56.636 32.500,56.490 32.251,56.428 31.917 C 56.362 31.567,56.221 31.333,56.076 31.333 C 55.942 31.333,55.833 31.265,55.833 31.182 C 55.833 30.951,54.960 29.667,54.804 29.667 C 54.728 29.667,54.667 29.601,54.667 29.521 C 54.667 29.308,53.221 27.833,53.011 27.833 C 52.913 27.833,52.833 27.721,52.833 27.583 C 52.833 27.446,52.770 27.333,52.692 27.333 C 52.615 27.333,52.378 27.183,52.167 27.000 C 51.955 26.817,51.644 26.667,51.474 26.667 C 51.304 26.667,51.167 26.548,51.167 26.401 C 51.167 26.255,51.017 26.096,50.833 26.048 C 50.650 26.000,50.500 25.857,50.500 25.731 C 50.500 25.578,50.302 25.500,49.917 25.500 C 49.529 25.500,49.333 25.422,49.333 25.268 C 49.333 25.013,48.983 24.833,48.486 24.833 C 48.311 24.833,48.167 24.721,48.167 24.583 C 48.167 24.395,47.965 24.333,47.353 24.333 C 46.679 24.333,46.524 24.276,46.452 24.000 C 46.376 23.710,46.224 23.667,45.283 23.667 C 44.476 23.667,44.178 23.603,44.106 23.417 C 44.026 23.207,43.514 23.167,40.922 23.167 C 38.288 23.167,37.833 23.203,37.833 23.417 M162.910 23.375 C 162.867 23.490,162.850 32.921,162.874 44.333 L 162.917 65.083 167.506 65.128 C 171.282 65.164,172.154 65.129,172.423 64.933 C 172.852 64.619,172.948 23.957,172.521 23.442 C 172.221 23.080,163.047 23.016,162.910 23.375 M231.074 23.411 C 230.868 23.567,230.353 23.658,229.656 23.661 C 228.798 23.666,228.486 23.738,228.205 24.000 C 227.972 24.217,227.617 24.333,227.186 24.333 C 226.820 24.333,226.412 24.445,226.274 24.583 C 226.136 24.721,225.834 24.833,225.601 24.833 C 225.349 24.833,225.106 24.968,225.000 25.167 C 224.884 25.383,224.651 25.500,224.336 25.500 C 224.069 25.500,223.785 25.616,223.705 25.758 C 223.626 25.900,223.386 26.029,223.172 26.045 C 222.956 26.062,222.748 26.207,222.705 26.371 C 222.659 26.547,222.471 26.667,222.240 26.667 C 222.027 26.667,221.804 26.746,221.744 26.844 C 221.683 26.941,221.454 27.089,221.234 27.173 C 221.014 27.257,220.833 27.439,220.833 27.579 C 220.833 27.722,220.688 27.833,220.500 27.833 C 220.317 27.833,220.167 27.940,220.167 28.070 C 220.167 28.201,219.833 28.519,219.425 28.779 C 219.014 29.040,218.609 29.455,218.517 29.708 C 218.425 29.960,218.234 30.167,218.092 30.167 C 217.950 30.167,217.833 30.271,217.833 30.399 C 217.833 30.527,217.721 30.674,217.583 30.727 C 217.446 30.780,217.333 30.929,217.333 31.059 C 217.333 31.188,217.176 31.336,216.983 31.386 C 216.791 31.436,216.680 31.554,216.738 31.647 C 216.796 31.740,216.691 31.898,216.505 31.998 C 216.307 32.103,216.167 32.347,216.167 32.583 C 216.167 32.818,216.026 33.063,215.833 33.167 C 215.650 33.265,215.500 33.495,215.500 33.678 C 215.500 33.861,215.387 34.054,215.250 34.106 C 215.097 34.165,215.000 34.418,215.000 34.757 C 215.000 35.164,214.912 35.339,214.667 35.417 C 214.421 35.495,214.333 35.669,214.333 36.077 C 214.333 36.416,214.236 36.668,214.083 36.727 C 213.915 36.792,213.833 37.056,213.833 37.541 C 213.833 38.053,213.738 38.341,213.500 38.545 C 213.223 38.782,213.167 39.036,213.167 40.061 C 213.167 40.952,213.098 41.350,212.917 41.500 C 212.551 41.803,212.547 48.444,212.911 48.926 C 213.067 49.133,213.158 49.648,213.161 50.349 C 213.166 51.232,213.232 51.508,213.500 51.750 C 213.733 51.961,213.833 52.263,213.833 52.755 C 213.833 53.178,213.933 53.542,214.083 53.667 C 214.221 53.781,214.333 54.046,214.333 54.257 C 214.333 54.813,214.502 55.167,214.768 55.167 C 214.922 55.167,215.000 55.363,215.000 55.750 C 215.000 56.157,215.075 56.333,215.250 56.333 C 215.389 56.333,215.500 56.481,215.500 56.667 C 215.500 56.850,215.650 57.150,215.833 57.333 C 216.017 57.517,216.167 57.738,216.167 57.825 C 216.167 57.912,216.262 58.043,216.379 58.117 C 216.495 58.190,216.681 58.456,216.792 58.708 C 216.902 58.960,217.069 59.167,217.163 59.167 C 217.257 59.167,217.333 59.282,217.333 59.422 C 217.333 59.562,217.443 59.719,217.577 59.771 C 217.711 59.822,217.866 60.007,217.922 60.182 C 217.977 60.357,218.130 60.500,218.261 60.500 C 218.393 60.500,218.500 60.612,218.500 60.750 C 218.500 60.887,218.607 61.000,218.739 61.000 C 218.870 61.000,219.023 61.142,219.078 61.315 C 219.133 61.489,219.333 61.671,219.522 61.721 C 219.712 61.770,219.817 61.891,219.757 61.989 C 219.694 62.090,219.778 62.167,219.950 62.167 C 220.117 62.167,220.347 62.317,220.461 62.500 C 220.576 62.683,220.821 62.833,221.007 62.833 C 221.192 62.833,221.387 62.946,221.440 63.083 C 221.492 63.221,221.622 63.333,221.728 63.333 C 221.833 63.333,222.013 63.483,222.128 63.667 C 222.246 63.855,222.517 64.000,222.751 64.000 C 223.009 64.000,223.167 64.095,223.167 64.250 C 223.167 64.424,223.341 64.500,223.739 64.500 C 224.164 64.500,224.338 64.585,224.417 64.833 C 224.491 65.068,224.669 65.167,225.016 65.167 C 225.299 65.167,225.551 65.272,225.605 65.413 C 225.661 65.560,226.028 65.703,226.514 65.768 C 226.961 65.827,227.413 65.979,227.517 66.104 C 227.637 66.248,228.051 66.333,228.632 66.333 C 229.279 66.333,229.654 66.421,229.879 66.625 C 230.551 67.234,240.333 67.111,240.333 66.493 C 240.333 66.405,240.767 66.333,241.296 66.333 C 241.837 66.333,242.403 66.234,242.588 66.106 C 242.769 65.981,243.266 65.828,243.694 65.765 C 244.133 65.700,244.511 65.545,244.563 65.409 C 244.617 65.269,244.875 65.167,245.177 65.167 C 245.558 65.167,245.721 65.077,245.785 64.833 C 245.841 64.621,246.012 64.500,246.258 64.500 C 246.469 64.500,246.755 64.387,246.893 64.250 C 247.030 64.113,247.244 64.000,247.368 64.000 C 247.492 64.000,247.701 63.850,247.833 63.667 C 247.965 63.483,248.178 63.333,248.305 63.333 C 248.597 63.333,249.327 62.652,249.330 62.375 C 249.332 62.260,249.483 62.167,249.667 62.167 C 249.850 62.167,250.000 62.063,250.000 61.936 C 250.000 61.809,250.150 61.666,250.333 61.618 C 250.517 61.570,250.667 61.412,250.667 61.266 C 250.667 61.120,250.779 61.000,250.917 61.000 C 251.054 61.000,251.167 60.887,251.167 60.750 C 251.167 60.612,251.271 60.500,251.399 60.500 C 251.617 60.500,251.833 60.162,251.833 59.819 C 251.833 59.598,249.973 57.742,249.625 57.616 C 249.465 57.558,249.333 57.396,249.333 57.255 C 249.333 57.115,249.221 57.000,249.083 57.000 C 248.946 57.000,248.833 56.887,248.833 56.750 C 248.833 56.611,248.685 56.500,248.500 56.500 C 248.278 56.500,248.167 56.389,248.167 56.167 C 248.167 55.981,248.056 55.833,247.917 55.833 C 247.779 55.833,247.667 55.721,247.667 55.583 C 247.667 55.444,247.519 55.333,247.333 55.333 C 247.111 55.333,247.000 55.222,247.000 55.000 C 247.000 54.815,246.889 54.667,246.750 54.667 C 246.612 54.667,246.500 54.554,246.500 54.417 C 246.500 54.279,246.359 54.167,246.186 54.167 C 246.012 54.167,245.833 54.018,245.785 53.833 C 245.727 53.612,245.558 53.500,245.279 53.500 C 245.049 53.500,244.823 53.406,244.777 53.292 C 244.710 53.125,244.690 53.125,244.680 53.292 C 244.673 53.406,244.594 53.500,244.506 53.500 C 244.364 53.500,243.614 54.120,242.641 55.042 C 242.472 55.202,242.258 55.333,242.167 55.333 C 242.075 55.333,242.000 55.446,242.000 55.583 C 242.000 55.722,241.852 55.833,241.667 55.833 C 241.444 55.833,241.333 55.944,241.333 56.167 C 241.333 56.437,241.222 56.500,240.750 56.500 C 240.343 56.500,240.167 56.575,240.167 56.750 C 240.167 56.913,240.003 57.000,239.698 57.000 C 239.440 57.000,239.069 57.150,238.872 57.333 C 238.539 57.643,238.284 57.667,235.257 57.667 C 232.222 57.667,231.977 57.644,231.667 57.333 C 231.447 57.114,231.111 57.000,230.684 57.000 C 230.262 57.000,230.002 56.913,229.940 56.750 C 229.887 56.612,229.657 56.500,229.428 56.500 C 229.182 56.500,228.939 56.363,228.833 56.167 C 228.735 55.983,228.543 55.833,228.406 55.833 C 228.268 55.833,228.113 55.721,228.060 55.583 C 228.008 55.446,227.785 55.333,227.566 55.333 C 227.346 55.333,227.165 55.240,227.164 55.125 C 227.160 54.871,226.441 54.167,226.185 54.167 C 226.083 54.167,226.000 54.017,226.000 53.833 C 226.000 53.650,225.863 53.363,225.696 53.196 C 225.528 53.028,225.343 52.766,225.284 52.612 C 225.225 52.459,225.100 52.333,225.005 52.333 C 224.911 52.333,224.833 52.155,224.833 51.937 C 224.833 51.719,224.726 51.451,224.594 51.342 C 224.462 51.233,224.305 50.919,224.245 50.644 C 224.185 50.369,224.030 50.104,223.901 50.054 C 223.745 49.994,223.667 49.697,223.667 49.161 C 223.667 48.669,223.570 48.260,223.417 48.107 C 223.216 47.906,223.167 47.348,223.167 45.274 C 223.167 43.200,223.216 42.641,223.417 42.440 C 223.574 42.284,223.667 41.874,223.667 41.340 C 223.667 40.766,223.742 40.461,223.899 40.400 C 224.027 40.351,224.181 39.985,224.241 39.587 C 224.300 39.189,224.458 38.821,224.591 38.770 C 224.729 38.717,224.833 38.460,224.833 38.172 C 224.833 37.844,224.917 37.667,225.072 37.667 C 225.203 37.667,225.356 37.524,225.412 37.349 C 225.467 37.174,225.622 36.989,225.756 36.937 C 225.890 36.886,226.000 36.738,226.000 36.609 C 226.000 36.239,228.183 34.167,228.572 34.167 C 228.624 34.167,228.817 34.017,229.000 33.833 C 229.183 33.650,229.483 33.500,229.667 33.500 C 229.852 33.500,230.000 33.389,230.000 33.250 C 230.000 33.061,230.203 33.000,230.825 33.000 C 231.397 33.000,231.694 32.921,231.795 32.742 C 232.010 32.358,237.232 32.356,237.656 32.740 C 237.814 32.883,238.209 33.000,238.534 33.000 C 238.860 33.000,239.206 33.096,239.303 33.214 C 239.401 33.331,239.897 33.613,240.405 33.839 C 240.914 34.065,241.331 34.344,241.332 34.458 C 241.333 34.573,241.484 34.667,241.668 34.667 C 241.853 34.667,242.132 34.817,242.289 35.000 C 242.446 35.183,242.661 35.333,242.768 35.333 C 242.874 35.333,243.000 35.483,243.048 35.667 C 243.096 35.850,243.255 36.000,243.401 36.000 C 243.547 36.000,243.667 36.112,243.667 36.250 C 243.667 36.387,243.771 36.500,243.899 36.500 C 244.027 36.500,244.174 36.612,244.227 36.750 C 244.280 36.887,244.515 37.000,244.750 37.000 C 244.985 37.000,245.220 36.887,245.273 36.750 C 245.326 36.612,245.473 36.500,245.601 36.500 C 245.729 36.500,245.833 36.387,245.833 36.250 C 245.833 36.112,245.914 36.000,246.012 36.000 C 246.177 36.000,247.496 34.969,248.198 34.292 C 248.364 34.131,248.575 34.000,248.667 34.000 C 248.758 34.000,248.833 33.925,248.833 33.833 C 248.833 33.639,249.441 33.000,249.626 33.000 C 249.696 33.000,249.993 32.737,250.288 32.417 C 250.582 32.096,250.900 31.833,250.995 31.833 C 251.089 31.833,251.167 31.752,251.167 31.652 C 251.167 31.552,251.327 31.340,251.524 31.181 C 251.942 30.842,251.853 29.667,251.409 29.667 C 251.276 29.667,251.167 29.559,251.167 29.428 C 251.167 29.297,251.017 29.142,250.833 29.083 C 250.650 29.025,250.500 28.870,250.500 28.739 C 250.500 28.607,250.425 28.500,250.333 28.500 C 250.169 28.500,249.968 28.348,249.095 27.564 C 248.851 27.346,248.542 27.167,248.409 27.167 C 248.276 27.167,248.167 27.054,248.167 26.917 C 248.167 26.779,248.028 26.667,247.859 26.667 C 247.690 26.667,247.416 26.517,247.250 26.333 C 247.084 26.150,246.857 26.000,246.745 26.000 C 246.633 26.000,246.447 25.887,246.333 25.750 C 246.219 25.613,245.948 25.500,245.730 25.500 C 245.512 25.500,245.183 25.350,245.000 25.167 C 244.794 24.960,244.444 24.833,244.083 24.833 C 243.676 24.833,243.500 24.758,243.500 24.583 C 243.500 24.446,243.444 24.342,243.375 24.353 C 242.723 24.456,241.667 24.300,241.667 24.101 C 241.667 23.766,241.287 23.667,240.007 23.667 C 239.203 23.667,238.814 23.594,238.667 23.417 C 238.363 23.051,231.556 23.046,231.074 23.411 M307.409 23.377 C 307.138 24.084,307.427 53.310,307.708 53.621 C 307.913 53.847,308.000 54.221,308.000 54.876 C 308.000 55.484,308.087 55.897,308.250 56.060 C 308.387 56.197,308.500 56.547,308.500 56.837 C 308.500 57.224,308.589 57.388,308.833 57.452 C 309.072 57.514,309.167 57.679,309.167 58.035 C 309.167 58.308,309.316 58.720,309.498 58.952 C 309.680 59.183,309.785 59.444,309.731 59.531 C 309.677 59.618,309.791 59.730,309.983 59.781 C 310.183 59.833,310.333 60.007,310.333 60.186 C 310.333 60.359,310.446 60.500,310.583 60.500 C 310.721 60.500,310.833 60.599,310.833 60.721 C 310.833 60.842,311.021 61.118,311.250 61.333 C 311.479 61.549,311.667 61.783,311.667 61.854 C 311.667 62.132,312.473 62.833,312.793 62.833 C 312.979 62.833,313.174 62.946,313.227 63.083 C 313.280 63.221,313.429 63.333,313.559 63.333 C 313.688 63.333,313.834 63.483,313.882 63.667 C 313.932 63.858,314.109 64.000,314.297 64.000 C 314.478 64.000,314.719 64.112,314.833 64.250 C 314.947 64.387,315.269 64.500,315.548 64.500 C 315.827 64.500,316.009 64.546,315.952 64.603 C 315.713 64.843,316.362 65.167,317.081 65.167 C 317.506 65.167,317.811 65.234,317.760 65.317 C 317.625 65.535,318.442 65.769,319.500 65.816 C 320.004 65.839,320.583 65.964,320.786 66.095 C 321.331 66.447,325.706 66.437,326.000 66.083 C 326.139 65.916,326.517 65.833,327.145 65.831 C 328.315 65.828,328.833 65.695,328.833 65.397 C 328.833 65.231,329.071 65.167,329.682 65.167 C 330.391 65.167,330.546 65.112,330.618 64.833 C 330.684 64.583,330.846 64.500,331.269 64.500 C 331.660 64.500,331.833 64.423,331.833 64.250 C 331.833 64.085,331.999 64.000,332.322 64.000 C 332.664 64.000,332.843 63.900,332.917 63.667 C 332.975 63.483,333.164 63.333,333.336 63.333 C 333.509 63.333,333.716 63.216,333.796 63.073 C 333.876 62.930,334.049 62.796,334.179 62.775 C 334.469 62.729,335.247 62.010,335.378 61.667 C 335.461 61.451,335.586 63.996,335.513 64.396 C 335.356 65.252,344.938 65.671,345.463 64.831 C 345.809 64.277,345.761 24.085,345.414 23.555 L 345.159 23.167 340.589 23.167 C 336.055 23.167,336.017 23.170,335.759 23.537 C 335.530 23.864,335.500 25.360,335.500 36.370 C 335.500 48.611,335.494 48.839,335.167 49.167 C 334.929 49.405,334.833 49.722,334.833 50.278 C 334.833 50.706,334.784 51.007,334.725 50.947 C 334.548 50.771,334.178 51.381,334.172 51.857 C 334.169 52.099,334.054 52.341,333.917 52.394 C 333.779 52.446,333.667 52.604,333.667 52.745 C 333.667 52.885,333.564 53.000,333.438 53.000 C 333.311 53.000,333.163 53.206,333.109 53.458 C 333.050 53.728,332.760 54.089,332.405 54.333 C 332.073 54.563,331.679 54.881,331.530 55.042 C 331.381 55.202,331.171 55.333,331.064 55.333 C 330.957 55.333,330.826 55.446,330.773 55.583 C 330.720 55.721,330.490 55.833,330.261 55.833 C 330.016 55.833,329.772 55.970,329.667 56.167 C 329.526 56.430,329.318 56.500,328.681 56.500 C 328.167 56.500,327.799 56.591,327.667 56.750 C 327.361 57.118,323.667 57.118,323.667 56.750 C 323.667 56.559,323.456 56.500,322.769 56.500 C 322.012 56.500,321.859 56.448,321.785 56.167 C 321.726 55.940,321.558 55.833,321.260 55.833 C 321.020 55.833,320.780 55.721,320.727 55.583 C 320.674 55.446,320.536 55.333,320.420 55.333 C 320.304 55.333,320.031 55.071,319.813 54.751 C 319.595 54.431,319.323 54.168,319.208 54.168 C 319.094 54.167,319.000 54.052,319.000 53.911 C 319.000 53.771,318.887 53.613,318.750 53.560 C 318.612 53.508,318.500 53.285,318.500 53.066 C 318.500 52.846,318.350 52.517,318.167 52.333 C 317.928 52.095,317.833 51.778,317.833 51.221 C 317.833 50.766,317.730 50.329,317.585 50.169 C 317.370 49.931,317.336 48.153,317.331 36.784 C 317.328 29.573,317.282 23.559,317.228 23.420 C 317.096 23.075,307.541 23.033,307.409 23.377 M374.773 23.417 C 374.701 23.605,374.397 23.667,373.537 23.667 C 372.627 23.667,372.324 23.734,372.038 24.000 C 371.820 24.203,371.450 24.333,371.090 24.333 C 370.766 24.333,370.500 24.413,370.500 24.510 C 370.500 24.607,370.425 24.640,370.333 24.583 C 370.242 24.527,370.167 24.560,370.167 24.657 C 370.167 24.754,369.979 24.833,369.750 24.833 C 369.521 24.833,369.183 24.983,369.000 25.167 C 368.817 25.350,368.483 25.500,368.258 25.500 C 368.034 25.500,367.790 25.599,367.717 25.721 C 367.643 25.842,367.452 25.990,367.292 26.049 C 367.131 26.108,367.000 26.271,367.000 26.411 C 367.000 26.571,366.847 26.667,366.592 26.667 C 366.167 26.667,365.333 27.314,365.333 27.644 C 365.333 27.748,365.183 27.833,365.000 27.833 C 364.688 27.833,364.667 27.722,364.667 26.083 L 364.667 24.333 359.769 24.333 L 354.872 24.333 354.771 24.708 C 354.640 25.195,354.639 87.066,354.770 87.408 C 354.856 87.634,355.490 87.667,359.768 87.667 L 364.667 87.667 364.667 75.064 L 364.667 62.460 365.239 62.897 C 365.554 63.137,365.929 63.333,366.072 63.333 C 366.216 63.333,366.333 63.448,366.333 63.589 C 366.333 63.729,366.465 63.892,366.625 63.951 C 366.785 64.010,366.977 64.158,367.050 64.279 C 367.123 64.401,367.396 64.500,367.656 64.500 C 367.988 64.500,368.154 64.599,368.215 64.833 C 368.278 65.073,368.442 65.167,368.800 65.167 C 369.089 65.167,369.338 65.272,369.394 65.417 C 369.446 65.554,369.624 65.667,369.789 65.667 C 369.954 65.667,370.368 65.817,370.710 66.000 C 371.052 66.183,371.643 66.333,372.023 66.333 C 372.488 66.333,372.783 66.428,372.926 66.625 C 373.107 66.872,373.478 66.925,375.361 66.972 C 376.583 67.003,377.677 67.106,377.792 67.201 C 377.936 67.321,378.065 67.321,378.209 67.200 C 378.325 67.104,379.472 67.002,380.776 66.972 C 382.735 66.926,383.187 66.868,383.454 66.625 C 383.674 66.426,384.051 66.333,384.643 66.333 C 385.260 66.333,385.538 66.261,385.606 66.083 C 385.666 65.929,385.919 65.833,386.268 65.833 C 386.611 65.833,386.964 65.702,387.167 65.500 C 387.350 65.317,387.695 65.167,387.932 65.167 C 388.224 65.167,388.393 65.059,388.452 64.833 C 388.514 64.596,388.679 64.500,389.025 64.500 C 389.303 64.500,389.551 64.393,389.606 64.250 C 389.659 64.112,389.844 64.000,390.018 64.000 C 390.222 64.000,390.333 63.883,390.333 63.667 C 390.333 63.420,390.444 63.333,390.761 63.333 C 391.034 63.333,391.388 63.122,391.739 62.750 C 392.042 62.429,392.374 62.167,392.478 62.167 C 392.582 62.167,392.667 62.054,392.667 61.917 C 392.667 61.779,392.774 61.667,392.905 61.667 C 393.037 61.667,393.192 61.517,393.250 61.333 C 393.308 61.150,393.463 61.000,393.595 61.000 C 393.726 61.000,393.833 60.887,393.833 60.750 C 393.833 60.612,393.941 60.500,394.072 60.500 C 394.203 60.500,394.358 60.350,394.417 60.167 C 394.475 59.983,394.630 59.833,394.761 59.833 C 394.893 59.833,395.000 59.725,395.000 59.592 C 395.000 59.459,395.095 59.290,395.212 59.217 C 395.328 59.143,395.535 58.864,395.670 58.596 C 396.164 57.620,396.249 57.500,396.449 57.500 C 396.560 57.500,396.700 57.243,396.759 56.928 C 396.818 56.614,396.971 56.316,397.100 56.267 C 397.229 56.217,397.333 55.951,397.333 55.672 C 397.333 55.336,397.416 55.167,397.581 55.167 C 397.742 55.167,397.867 54.932,397.935 54.503 C 397.994 54.138,398.145 53.754,398.271 53.649 C 398.405 53.538,398.500 53.139,398.500 52.686 C 398.500 52.094,398.578 51.865,398.833 51.705 C 399.118 51.528,399.167 51.317,399.167 50.269 C 399.167 49.381,399.236 48.983,399.417 48.833 C 399.782 48.530,399.786 42.055,399.422 41.574 C 399.266 41.367,399.175 40.852,399.172 40.147 C 399.168 39.303,399.089 38.946,398.833 38.621 C 398.622 38.353,398.500 37.945,398.500 37.510 C 398.500 37.053,398.416 36.791,398.250 36.727 C 398.097 36.668,398.000 36.416,398.000 36.077 C 398.000 35.669,397.912 35.495,397.667 35.417 C 397.419 35.338,397.333 35.164,397.333 34.739 C 397.333 34.424,397.254 34.167,397.158 34.167 C 397.062 34.167,396.906 33.948,396.813 33.680 C 396.720 33.412,396.536 33.152,396.405 33.102 C 396.274 33.052,396.167 32.821,396.167 32.589 C 396.167 32.357,396.090 32.167,395.996 32.167 C 395.903 32.167,395.741 31.979,395.636 31.750 C 395.532 31.521,395.346 31.333,395.223 31.333 C 395.100 31.333,395.000 31.183,395.000 31.000 C 395.000 30.815,394.889 30.667,394.750 30.667 C 394.613 30.667,394.500 30.551,394.500 30.409 C 394.500 30.029,392.255 27.833,391.868 27.833 C 391.679 27.833,391.502 27.691,391.452 27.500 C 391.404 27.317,391.245 27.167,391.099 27.167 C 390.953 27.167,390.833 27.054,390.833 26.917 C 390.833 26.764,390.678 26.667,390.434 26.667 C 390.215 26.667,389.992 26.553,389.939 26.414 C 389.885 26.275,389.652 26.090,389.421 26.002 C 389.189 25.914,389.000 25.765,389.000 25.671 C 389.000 25.577,388.813 25.500,388.583 25.500 C 388.354 25.500,388.017 25.350,387.833 25.167 C 387.631 24.964,387.278 24.833,386.934 24.833 C 386.586 24.833,386.332 24.738,386.273 24.583 C 386.206 24.408,385.932 24.333,385.358 24.333 C 384.679 24.333,384.524 24.276,384.452 24.000 C 384.374 23.704,384.224 23.667,383.119 23.667 C 382.216 23.667,381.817 23.598,381.667 23.417 C 381.495 23.210,380.890 23.167,378.164 23.167 C 375.389 23.167,374.854 23.206,374.773 23.417 M379.894 32.750 C 379.961 32.927,380.237 33.000,380.833 33.000 C 381.430 33.000,381.705 33.073,381.773 33.250 C 381.826 33.387,382.012 33.500,382.186 33.500 C 382.361 33.500,382.632 33.650,382.789 33.833 C 382.947 34.018,383.280 34.167,383.537 34.167 C 383.837 34.167,384.000 34.254,384.000 34.417 C 384.000 34.554,384.060 34.667,384.133 34.667 C 384.206 34.667,384.525 34.927,384.841 35.245 C 385.158 35.563,385.510 35.825,385.625 35.828 C 385.740 35.831,385.833 35.948,385.833 36.089 C 385.833 36.229,385.946 36.387,386.083 36.440 C 386.221 36.492,386.333 36.632,386.333 36.750 C 386.333 36.868,386.446 37.008,386.583 37.060 C 386.721 37.113,386.833 37.271,386.833 37.411 C 386.833 37.556,386.978 37.667,387.167 37.667 C 387.427 37.667,387.500 37.778,387.500 38.172 C 387.500 38.467,387.604 38.717,387.750 38.773 C 387.887 38.826,388.000 39.038,388.000 39.245 C 388.000 39.452,388.150 39.812,388.333 40.045 C 388.569 40.345,388.667 40.722,388.667 41.330 C 388.667 41.873,388.759 42.283,388.917 42.440 C 389.117 42.641,389.167 43.196,389.167 45.244 C 389.167 47.360,389.124 47.814,388.917 47.894 C 388.733 47.964,388.667 48.253,388.667 48.977 C 388.667 49.684,388.598 49.991,388.426 50.057 C 388.293 50.108,388.136 50.410,388.076 50.730 C 388.016 51.049,387.862 51.351,387.734 51.400 C 387.604 51.450,387.500 51.715,387.500 51.995 C 387.500 52.317,387.415 52.500,387.266 52.500 C 387.138 52.500,386.954 52.725,386.858 53.000 C 386.762 53.275,386.605 53.500,386.509 53.500 C 386.412 53.500,386.333 53.650,386.333 53.833 C 386.333 54.017,386.250 54.167,386.148 54.167 C 385.892 54.167,385.173 54.871,385.170 55.125 C 385.168 55.240,385.017 55.333,384.833 55.333 C 384.648 55.333,384.500 55.444,384.500 55.583 C 384.500 55.721,384.387 55.843,384.250 55.854 C 384.113 55.866,383.919 55.884,383.820 55.896 C 383.721 55.907,383.544 56.048,383.427 56.208 C 383.309 56.369,383.050 56.500,382.851 56.500 C 382.652 56.500,382.446 56.612,382.394 56.750 C 382.335 56.901,382.084 57.000,381.755 57.000 C 381.456 57.000,381.021 57.150,380.788 57.333 C 380.445 57.603,380.112 57.667,379.036 57.667 C 378.058 57.667,377.653 57.733,377.500 57.917 C 377.241 58.228,376.603 58.241,376.353 57.940 C 376.227 57.789,375.714 57.703,374.805 57.681 C 373.745 57.655,373.355 57.577,373.034 57.324 C 372.807 57.146,372.404 57.000,372.139 57.000 C 371.864 57.000,371.615 56.893,371.560 56.750 C 371.508 56.612,371.265 56.500,371.022 56.500 C 370.761 56.500,370.495 56.364,370.372 56.167 C 370.258 55.983,370.012 55.833,369.827 55.833 C 369.641 55.833,369.446 55.721,369.394 55.583 C 369.341 55.446,369.156 55.333,368.982 55.333 C 368.778 55.333,368.667 55.216,368.667 55.000 C 368.667 54.815,368.556 54.667,368.417 54.667 C 368.279 54.667,368.167 54.554,368.167 54.417 C 368.167 54.278,368.019 54.167,367.833 54.167 C 367.650 54.167,367.500 54.058,367.500 53.926 C 367.500 53.578,366.860 52.546,366.576 52.437 C 366.442 52.386,366.333 52.186,366.333 51.993 C 366.333 51.801,366.221 51.530,366.083 51.393 C 365.946 51.255,365.833 50.961,365.833 50.740 C 365.833 50.517,365.684 50.243,365.500 50.128 C 365.225 49.956,365.167 49.739,365.167 48.894 C 365.167 48.137,365.101 47.844,364.917 47.773 C 364.555 47.634,364.560 43.072,364.922 42.593 C 365.058 42.413,365.167 41.915,365.167 41.468 C 365.167 40.889,365.259 40.574,365.500 40.333 C 365.683 40.150,365.833 39.818,365.833 39.595 C 365.833 39.373,365.946 39.078,366.083 38.940 C 366.221 38.803,366.333 38.460,366.333 38.179 C 366.333 37.778,366.406 37.667,366.667 37.667 C 366.855 37.667,367.000 37.556,367.000 37.411 C 367.000 37.271,367.113 37.113,367.250 37.060 C 367.387 37.008,367.500 36.903,367.500 36.829 C 367.500 36.692,368.786 35.333,368.916 35.333 C 369.056 35.333,369.833 34.480,369.833 34.326 C 369.833 34.238,370.061 34.167,370.339 34.167 C 370.618 34.167,370.884 34.062,370.933 33.933 C 370.983 33.805,371.280 33.651,371.595 33.592 C 371.935 33.528,372.167 33.387,372.167 33.242 C 372.167 33.063,372.379 33.000,372.980 33.000 C 373.499 33.000,373.867 32.910,374.000 32.750 C 374.169 32.546,374.721 32.500,377.003 32.500 C 379.333 32.500,379.814 32.542,379.894 32.750 " stroke="none" fill="#558dd6" fill-rule="evenodd"></path><path id="path4" d="" stroke="none" fill="#00ffff" fill-rule="evenodd"></path></g></svg>