<?xml version="1.0" encoding="UTF-8" standalone="no"?>
<!-- Created with Inkscape (http://www.inkscape.org/) -->

<svg
   xmlns:dc="http://purl.org/dc/elements/1.1/"
   xmlns:cc="http://creativecommons.org/ns#"
   xmlns:rdf="http://www.w3.org/1999/02/22-rdf-syntax-ns#"
   xmlns:svg="http://www.w3.org/2000/svg"
   xmlns="http://www.w3.org/2000/svg"
   xmlns:sodipodi="http://sodipodi.sourceforge.net/DTD/sodipodi-0.dtd"
   xmlns:inkscape="http://www.inkscape.org/namespaces/inkscape"
   width="210mm"
   height="297mm"
   viewBox="0 0 210 297"
   version="1.1"
   id="svg8"
   sodipodi:docname="polygonstart.svg"
   inkscape:version="0.92.2 (5c3e80d, 2017-08-06)">
  <defs
     id="defs2" />
  <sodipodi:namedview
     id="base"
     pagecolor="#ffffff"
     bordercolor="#666666"
     borderopacity="1.0"
     inkscape:pageopacity="0.0"
     inkscape:pageshadow="2"
     inkscape:zoom="1"
     inkscape:cx="327.28571"
     inkscape:cy="743.74769"
     inkscape:document-units="mm"
     inkscape:current-layer="layer1"
     showgrid="false"
     inkscape:window-width="1920"
     inkscape:window-height="1056"
     inkscape:window-x="0"
     inkscape:window-y="24"
     inkscape:window-maximized="1"
     inkscape:object-nodes="false"
     showguides="true"
     inkscape:guide-bbox="true" />
  <metadata
     id="metadata5">
    <rdf:RDF>
      <cc:Work
         rdf:about="">
        <dc:format>image/svg+xml</dc:format>
        <dc:type
           rdf:resource="http://purl.org/dc/dcmitype/StillImage" />
      </cc:Work>
    </rdf:RDF>
  </metadata>
  <g
     inkscape:label="Layer 1"
     inkscape:groupmode="layer"
     id="layer1">
    <path
       style="fill:#000000;stroke:none;stroke-width:0.26458332px;stroke-linecap:butt;stroke-linejoin:miter;stroke-opacity:1;opacity:1"
       d="M 32.745135,138.56814 60.16635,154.39979 V 119.99375 Z"
       id="path1672"
       inkscape:connector-curvature="0" />
    <path
       style="fill:#000000;stroke:none;stroke-width:0.26458332px;stroke-linecap:butt;stroke-linejoin:miter;stroke-opacity:1;opacity:1"
       d="M 165.42674,91.185565 153.79355,84.469141 133.74697,104.51572 Z"
       id="path1668"
       inkscape:connector-curvature="0" />
    <path
       style="color:#000000;font-style:normal;font-variant:normal;font-weight:normal;font-stretch:normal;font-size:medium;line-height:normal;font-family:sans-serif;font-variant-ligatures:normal;font-variant-position:normal;font-variant-caps:normal;font-variant-numeric:normal;font-variant-alternates:normal;font-feature-settings:normal;text-indent:0;text-align:start;text-decoration:none;text-decoration-line:none;text-decoration-style:solid;text-decoration-color:#000000;letter-spacing:normal;word-spacing:normal;text-transform:none;writing-mode:lr-tb;direction:ltr;text-orientation:mixed;dominant-baseline:auto;baseline-shift:baseline;text-anchor:start;white-space:normal;shape-padding:0;clip-rule:nonzero;display:inline;overflow:visible;visibility:visible;opacity:0.56199999;isolation:auto;mix-blend-mode:normal;color-interpolation:sRGB;color-interpolation-filters:linearRGB;solid-color:#000000;solid-opacity:1;vector-effect:none;fill:#000000;fill-opacity:1;fill-rule:nonzero;stroke:none;stroke-width:0;stroke-linecap:butt;stroke-linejoin:miter;stroke-miterlimit:4;stroke-dasharray:none;stroke-dashoffset:0;stroke-opacity:1;color-rendering:auto;image-rendering:auto;shape-rendering:auto;text-rendering:auto;enable-background:accumulate"
       d="m 98.689453,41.921875 -0.0078,0.0039 -1.25,0.722657 -1.25,0.722656 -53.417969,30.839844 v 52.398438 c -4.5e-5,30.83079 25.094985,55.92584 55.925781,55.92578 30.830795,6e-5 55.925825,-25.09502 55.925775,-55.92578 V 74.210938 Z"
       id="path1760" />
    <path
       style="color:#000000;font-style:normal;font-variant:normal;font-weight:normal;font-stretch:normal;font-size:medium;line-height:normal;font-family:sans-serif;font-variant-ligatures:normal;font-variant-position:normal;font-variant-caps:normal;font-variant-numeric:normal;font-variant-alternates:normal;font-feature-settings:normal;text-indent:0;text-align:start;text-decoration:none;text-decoration-line:none;text-decoration-style:solid;text-decoration-color:#000000;letter-spacing:normal;word-spacing:normal;text-transform:none;writing-mode:lr-tb;direction:ltr;text-orientation:mixed;dominant-baseline:auto;baseline-shift:baseline;text-anchor:start;white-space:normal;shape-padding:0;clip-rule:nonzero;display:inline;overflow:visible;visibility:visible;opacity:0.56199999;isolation:auto;mix-blend-mode:normal;color-interpolation:sRGB;color-interpolation-filters:linearRGB;solid-color:#000000;solid-opacity:1;vector-effect:none;fill:#000000;fill-opacity:1;fill-rule:nonzero;stroke:none;stroke-width:0;stroke-linecap:butt;stroke-linejoin:miter;stroke-miterlimit:4;stroke-dasharray:none;stroke-dashoffset:0;stroke-opacity:1;color-rendering:auto;image-rendering:auto;shape-rendering:auto;text-rendering:auto;enable-background:accumulate"
       d="M 98.689453,41.958985 154.58398,74.23047 v 52.37891 c 5e-5,30.81339 -25.0811,55.89459 -55.894527,55.89453 -30.813432,6e-5 -55.894576,-25.08111 -55.894531,-55.89453 V 74.230469 l 53.402344,-30.832031 1.25,-0.720704 z"
       id="path1020" />
    <path
       style="color:#000000;font-style:normal;font-variant:normal;font-weight:normal;font-stretch:normal;font-size:medium;line-height:normal;font-family:sans-serif;font-variant-ligatures:normal;font-variant-position:normal;font-variant-caps:normal;font-variant-numeric:normal;font-variant-alternates:normal;font-feature-settings:normal;text-indent:0;text-align:start;text-decoration:none;text-decoration-line:none;text-decoration-style:solid;text-decoration-color:#000000;letter-spacing:normal;word-spacing:normal;text-transform:none;writing-mode:lr-tb;direction:ltr;text-orientation:mixed;dominant-baseline:auto;baseline-shift:baseline;text-anchor:start;white-space:normal;shape-padding:0;clip-rule:nonzero;display:inline;overflow:visible;visibility:visible;opacity:1;isolation:auto;mix-blend-mode:normal;color-interpolation:sRGB;color-interpolation-filters:linearRGB;solid-color:#000000;solid-opacity:1;vector-effect:none;fill:#ffffff;fill-opacity:1;fill-rule:nonzero;stroke:none;stroke-width:5;stroke-linecap:butt;stroke-linejoin:miter;stroke-miterlimit:4;stroke-dasharray:none;stroke-dashoffset:0;stroke-opacity:1;color-rendering:auto;image-rendering:auto;shape-rendering:auto;text-rendering:auto;enable-background:accumulate"
       d="M 98.690098,44.827753 97.440045,45.55019 45.279923,75.663599 v 50.945211 c -4.2e-5,29.46797 23.942201,53.41022 53.410175,53.41017 29.467962,5e-5 53.409702,-23.9422 53.409662,-53.41017 V 75.663599 Z"
       id="path1009"
       inkscape:connector-curvature="0" />
    <path
       style="opacity:1;fill:#000000;fill-opacity:1;stroke:#ff0000;stroke-width:0;stroke-miterlimit:4;stroke-dasharray:none"
       d="M 98.689583,47.714401 47.779512,77.106921 V 126.6083 c -3.9e-5,28.11687 22.793199,50.91011 50.910071,50.91007 28.116867,4e-5 50.910107,-22.7932 50.910067,-50.91007 V 77.106921 Z m 49.054887,65.275609 c 0.90858,3.27299 1.48731,6.6287 1.72754,10.01695 -0.24023,-3.38825 -0.81896,-6.74396 -1.72754,-10.01695 z"
       id="path981"
       inkscape:connector-curvature="0"
       sodipodi:nodetypes="cccccccccc" />
    <g
       id="text1688"
       style="font-style:normal;font-variant:normal;font-weight:500;font-stretch:normal;font-size:9.17222214px;line-height:1.25;font-family:aakar;-inkscape-font-specification:'aakar, Medium';font-variant-ligatures:normal;font-variant-caps:normal;font-variant-numeric:normal;font-feature-settings:normal;text-align:start;letter-spacing:0.60854167px;word-spacing:0px;writing-mode:lr-tb;text-anchor:start;opacity:1;fill:#ffffff;fill-opacity:1;stroke:none;stroke-width:0.22960162"
       aria-label="WE BUILD WEBSITES"
       transform="translate(6.35,-1.8520834)">
      <path
         inkscape:connector-curvature="0"
         id="path1696"
         style="letter-spacing:0.60854167px;stroke-width:0.22960162;fill:#ffffff"
         d="m 59.297352,154.30536 -0.140138,0.0966 q -0.232305,-0.2424 -0.409508,-0.29434 -0.164746,-0.0497 -0.441924,0.0217 -0.831534,0.21402 -1.784365,0.45724 -1.237384,0.31964 -1.848453,0.49052 -0.984627,0.276 -1.798124,0.53198 l -0.07624,-0.11063 q 0.292053,-0.39705 0.727343,-1.01246 0.306308,-0.43951 0.853039,-1.24049 0.184702,-0.26868 0.726351,-1.07704 l -3.902621,1.01402 -0.07624,-0.11064 q 0.647697,-0.85967 1.610876,-2.20869 0.807484,-1.13295 1.368966,-1.94409 0.264843,-0.38918 0.373495,-0.59459 0.209928,-0.40572 -0.03403,-0.75976 l 0.140138,-0.0966 1.245199,1.80704 -0.140138,0.0966 q -0.330359,-0.47942 -0.581133,-0.30662 -0.08113,0.0559 -0.129973,0.11132 -0.04884,0.0554 -0.138651,0.19344 l -2.041394,2.9731 2.623771,-0.64404 0.437087,-0.66016 q 0.320564,-0.48197 0.339716,-0.69097 0.01915,-0.209 -0.189229,-0.5114 l 0.140138,-0.0966 1.357013,1.96932 -0.140138,0.0966 q -0.172803,-0.25077 -0.291001,-0.34337 -0.203607,-0.1534 -0.380624,-0.0314 -0.06638,0.0457 -0.195363,0.22164 -0.116524,0.1782 -0.242716,0.37393 l -1.844234,2.70671 3.135671,-0.80099 q 0.160964,-0.0348 0.328808,-0.10691 0.172926,-0.0648 0.283562,-0.14101 0.191768,-0.13214 0.174041,-0.31573 -0.01264,-0.17621 -0.185448,-0.42699 l 0.140139,-0.0966 z" />
      <path
         inkscape:connector-curvature="0"
         id="path1698"
         style="letter-spacing:0.60854167px;stroke-width:0.22960162;fill:#ffffff"
         d="m 59.731621,161.01124 -1.376132,0.74849 -3.326612,-3.51132 0.123547,-0.11705 q 0.308019,0.32512 0.529448,0.33744 0.234091,0.0127 0.591726,-0.32616 l 2.887088,-2.73521 q 0.37064,-0.35115 0.363792,-0.56676 -3.45e-4,-0.22177 -0.314525,-0.55339 l 0.123546,-0.11705 3.271168,3.4528 -0.92985,0.88094 -0.135529,-0.14306 q 0.361398,-0.47811 0.306293,-0.78373 -0.04244,-0.30528 -0.559915,-0.85148 l -0.831653,-0.87783 q -0.117047,-0.12355 -0.199185,-0.1321 -0.07564,-0.0147 -0.225191,0.12697 l -1.443544,1.36761 0.9487,1.00138 q 0.394265,0.41615 0.622197,0.42231 0.240594,0.006 0.673179,-0.29228 l 0.141689,0.14955 -1.508568,1.42921 -0.141689,-0.14955 q 0.334703,-0.42815 0.322037,-0.66292 -3e-6,-0.23444 -0.381948,-0.63759 l -0.9487,-1.00138 -1.599603,1.51546 q -0.201576,0.19097 -0.123543,0.35148 0.0907,0.16085 0.768339,0.87612 0.585237,0.61774 1.038021,0.74401 0.452784,0.12628 1.162926,-0.12698 z" />
      <path
         inkscape:connector-curvature="0"
         id="path1700"
         style="letter-spacing:0.60854167px;stroke-width:0.22960162;fill:#ffffff"
         d="m 66.426658,161.1315 0.09262,-0.14277 2.10407,1.36495 q 0.758968,0.49236 1.098124,0.98998 0.544071,0.7907 0.04684,1.55719 -0.350988,0.54104 -0.899569,0.58021 -0.312779,0.0213 -0.801841,-0.14647 0.473204,0.48848 0.608445,0.97126 0.163874,0.58677 -0.196864,1.14285 -0.394862,0.60868 -1.137203,0.65027 -0.697658,0.0386 -1.539286,-0.50742 l -2.509855,-1.6282 0.09262,-0.14278 q 0.458386,0.29737 0.669006,0.25249 0.223008,-0.0475 0.491124,-0.46081 l 2.164428,-3.33645 q 0.272991,-0.42082 0.228116,-0.63144 -0.04487,-0.21062 -0.510776,-0.51286 z m -0.05745,3.34733 -1.20896,1.8636 q -0.126746,0.19538 -0.05303,0.32862 0.07859,0.12573 0.424263,0.34997 0.56359,0.36561 0.989086,0.41742 0.684248,0.0809 1.113234,-0.58041 0.272991,-0.42081 0.205784,-0.82742 -0.05624,-0.32477 -0.326149,-0.64934 -0.163894,-0.19174 -0.412278,-0.3849 -0.235995,-0.1958 -0.731954,-0.51754 z m 1.311331,-2.02141 -1.116338,1.72083 0.713881,0.46311 q 0.390756,0.25349 0.704344,0.29677 0.614786,0.0892 0.990148,-0.48943 0.385113,-0.59365 0.09247,-1.14651 -0.208768,-0.40235 -0.734786,-0.74359 l -0.338154,-0.21937 q -0.09769,-0.0634 -0.179135,-0.0201 -0.06906,0.0406 -0.13243,0.13831 z" />
      <path
         inkscape:connector-curvature="0"
         id="path1702"
         style="letter-spacing:0.60854167px;stroke-width:0.22960162;fill:#ffffff"
         d="m 76.944797,166.74062 -0.07184,0.15428 q -0.487205,-0.22686 -0.719773,-0.0881 -0.232568,0.13873 -0.527493,0.77209 l -0.986862,2.11934 q -0.408356,0.87697 -0.87994,1.2107 -0.872317,0.62141 -2.236491,-0.0138 -1.291092,-0.6012 -1.365044,-1.67311 -0.03998,-0.57193 0.31544,-1.33522 l 1.179697,-2.53347 q 0.215522,-0.46284 0.137977,-0.65704 -0.06564,-0.19854 -0.528487,-0.41406 l 0.07184,-0.15428 2.297983,1.07004 -0.07184,0.15428 q -0.470965,-0.2193 -0.677066,-0.13742 -0.194199,0.0776 -0.402159,0.52415 l -1.209946,2.59843 q -0.31761,0.68209 -0.302113,1.09441 0.02988,0.78461 0.947448,1.21187 0.454725,0.21174 0.883291,0.20381 0.432347,-0.0161 0.747108,-0.2252 0.15738,-0.10457 0.323314,-0.3336 0.165934,-0.22904 0.377675,-0.68376 l 1.020892,-2.19242 q 0.298705,-0.64149 0.227049,-0.91199 -0.05975,-0.27485 -0.506359,-0.48281 l 0.07184,-0.15428 z" />
      <path
         inkscape:connector-curvature="0"
         id="path1704"
         style="letter-spacing:0.60854167px;stroke-width:0.22960162;fill:#ffffff"
         d="m 75.336502,172.37263 0.05469,-0.16116 q 0.525894,0.17846 0.719024,0.0832 0.20449,-0.10086 0.362803,-0.56738 l 1.278014,-3.76608 q 0.164069,-0.48348 0.05745,-0.67101 -0.09526,-0.19313 -0.621158,-0.37159 l 0.05469,-0.16116 2.519202,0.85489 -0.05469,0.16116 q -0.491965,-0.16695 -0.710541,-0.0803 -0.215698,0.0781 -0.379768,0.56163 l -1.278014,3.76608 q -0.161191,0.475 -0.04048,0.67676 0.120711,0.20177 0.612676,0.36871 l -0.05469,0.16117 z" />
      <path
         inkscape:connector-curvature="0"
         id="path1706"
         style="letter-spacing:0.60854167px;stroke-width:0.22960162;fill:#ffffff"
         d="m 82.497609,168.33076 -0.03859,0.16576 q -0.471095,-0.10967 -0.6801,-0.002 -0.198249,0.101 -0.314009,0.59826 l -0.960606,4.12645 q -0.05686,0.24427 0.08595,0.34189 0.144846,0.0889 0.711905,0.22091 1.107946,0.25792 1.519633,0.18821 0.582934,-0.0942 1.118734,-0.81558 l 0.2181,0.0508 -0.772124,1.42049 -4.693501,-1.09261 0.03859,-0.16576 q 0.436199,0.10155 0.627756,-0.0102 0.202311,-0.11844 0.31401,-0.59826 l 0.90171,-3.87345 q 0.11576,-0.49726 -0.0088,-0.6734 -0.122507,-0.18487 -0.56743,-0.28844 l 0.03859,-0.16576 z" />
      <path
         inkscape:connector-curvature="0"
         id="path1708"
         style="letter-spacing:0.60854167px;stroke-width:0.22960162;fill:#ffffff"
         d="m 84.673679,174.89767 0.0161,-0.16942 q 0.499355,0.0475 0.657286,-0.0995 0.15793,-0.14694 0.203704,-0.62846 l 0.376363,-3.95917 q 0.04832,-0.50827 -0.08079,-0.66451 -0.119345,-0.1643 -0.627617,-0.21262 l 0.0161,-0.16942 2.407604,0.22886 q 1.649654,0.15682 2.507519,0.97618 0.907128,0.86902 0.768112,2.33142 -0.107654,1.13246 -0.868013,1.84298 -1.00702,0.939 -2.843932,0.76438 z m 2.190969,-5.06433 -0.430612,4.52986 q -0.02119,0.22292 0.07903,0.30443 0.100224,0.0815 0.421237,0.11203 0.579609,0.0551 0.971518,0.002 0.78382,-0.10544 1.277141,-0.56241 0.650405,-0.595 0.762297,-1.77205 0.05849,-0.61528 -0.0813,-1.13243 -0.138941,-0.52607 -0.555566,-0.97057 -0.326166,-0.35492 -0.714718,-0.52682 -0.483249,-0.2169 -1.276866,-0.29234 -0.276429,-0.0263 -0.375771,0.0722 -0.05944,0.0573 -0.07639,0.23568 z" />
      <path
         inkscape:connector-curvature="0"
         id="path1710"
         style="letter-spacing:0.60854167px;stroke-width:0.22960162;fill:#ffffff"
         d="m 103.95858,168.09063 0.0299,0.16753 q -0.31681,0.11119 -0.43741,0.25102 -0.11337,0.12944 -0.16311,0.41129 -0.14922,0.84557 -0.32206,1.81365 -0.221,1.25874 -0.31828,1.88575 -0.15614,1.01059 -0.2597,1.8571 l -0.13226,0.0236 q -0.24063,-0.43017 -0.62077,-1.08109 -0.27338,-0.46071 -0.77635,-1.28986 -0.16819,-0.27933 -0.67998,-1.10691 l -0.691653,3.97244 -0.132265,0.0236 q -0.514634,-0.94536 -1.344215,-2.38041 -0.697301,-1.2039 -1.203426,-2.05069 -0.244716,-0.40214 -0.386755,-0.58604 -0.282504,-0.35899 -0.705752,-0.28339 l -0.02993,-0.16753 2.160329,-0.3859 0.02993,0.16753 q -0.573148,0.10238 -0.519595,0.40218 0.01733,0.097 0.04756,0.16439 0.03024,0.0674 0.118737,0.20626 l 1.861983,3.08863 0.499312,-2.65511 -0.420141,-0.67108 q -0.30613,-0.49125 -0.488475,-0.59517 -0.182345,-0.10391 -0.543869,-0.0393 l -0.02993,-0.16754 2.354325,-0.42055 0.0299,0.16754 q -0.29981,0.0536 -0.43301,0.12284 -0.2239,0.12189 -0.1861,0.33351 0.0142,0.0794 0.12094,0.26957 0.11401,0.17981 0.23999,0.37568 l 1.70105,2.79891 0.56825,-3.18607 q 0.0349,-0.16093 0.0387,-0.34358 0.0126,-0.18423 -0.011,-0.3165 -0.0409,-0.22926 -0.21542,-0.28908 -0.16565,-0.0614 -0.46545,-0.008 l -0.0299,-0.16753 z" />
      <path
         inkscape:connector-curvature="0"
         id="path1712"
         style="letter-spacing:0.60854167px;stroke-width:0.22960162;fill:#ffffff"
         d="m 110.23964,170.46269 0.11341,1.56241 -4.57169,1.57967 -0.0556,-0.16085 q 0.4233,-0.14627 0.52596,-0.34285 0.1082,-0.20797 -0.0527,-0.6736 l -1.29884,-3.75895 q -0.16675,-0.48257 -0.36594,-0.56537 -0.20212,-0.0913 -0.63389,0.0579 l -0.0556,-0.16085 4.49549,-1.55335 0.41832,1.21065 -0.18625,0.0644 q -0.2862,-0.52658 -0.5873,-0.6026 -0.29555,-0.0874 -1.00671,0.15831 l -1.14292,0.39492 q -0.16085,0.0556 -0.20257,0.12685 -0.0446,0.0628 0.0227,0.25753 l 0.64942,1.87947 1.30378,-0.45049 q 0.54183,-0.18723 0.64157,-0.39227 0.10527,-0.21644 0.0118,-0.7338 l 0.19472,-0.0673 0.67867,1.96413 -0.19472,0.0673 q -0.25171,-0.48164 -0.47077,-0.56706 -0.21351,-0.0968 -0.73841,0.0846 l -1.30377,0.4505 0.71962,2.08266 q 0.0907,0.26245 0.2691,0.25766 0.18395,-0.0162 1.11522,-0.33796 0.80427,-0.2779 1.10627,-0.63813 0.30199,-0.36022 0.36458,-1.11157 z" />
      <path
         inkscape:connector-curvature="0"
         id="path1714"
         style="letter-spacing:0.60854167px;stroke-width:0.22960162;fill:#ffffff"
         d="m 109.00396,166.40117 -0.0759,-0.15234 2.24511,-1.11789 q 0.80985,-0.40324 1.41079,-0.4423 0.95749,-0.0665 1.36473,0.75135 0.28745,0.57732 0.0423,1.06963 -0.14067,0.28017 -0.5338,0.616 0.66123,-0.15913 1.14571,-0.0301 0.5886,0.15721 0.88404,0.75056 0.32339,0.64948 -0.0182,1.30987 -0.3215,0.62036 -1.21954,1.06752 l -2.6781,1.33348 -0.0759,-0.15234 q 0.48911,-0.24354 0.55755,-0.44773 0.0725,-0.21619 -0.14712,-0.65719 l -1.77266,-3.56011 q -0.22357,-0.44902 -0.42776,-0.51746 -0.20418,-0.0684 -0.70131,0.17909 z m 2.85323,1.75128 0.99013,1.98853 q 0.1038,0.20848 0.25602,0.21273 0.14822,-0.004 0.51706,-0.18741 0.60137,-0.29943 0.86231,-0.63949 0.41752,-0.5481 0.0662,-1.25371 -0.22358,-0.44902 -0.60789,-0.59788 -0.30825,-0.11668 -0.72497,-0.0493 -0.24843,0.0437 -0.54105,0.15933 -0.28859,0.10367 -0.81779,0.36717 z m -1.07398,-2.15691 0.91428,1.83618 0.76173,-0.37928 q 0.41695,-0.20761 0.61365,-0.45564 0.38937,-0.48406 0.082,-1.10146 -0.31541,-0.63345 -0.94026,-0.66253 -0.45262,-0.0248 -1.0139,0.25469 l -0.36082,0.17966 q -0.10424,0.0519 -0.1084,0.14403 -1.3e-4,0.0801 0.0518,0.18435 z" />
      <path
         inkscape:connector-curvature="0"
         id="path1716"
         style="letter-spacing:0.60854167px;stroke-width:0.22960162;fill:#ffffff"
         d="m 117.30501,161.36449 1.21746,1.48211 -0.18672,0.12361 q -0.44573,-0.44614 -1.02663,-0.57721 -0.66033,-0.15369 -1.21303,0.21219 -0.30623,0.20272 -0.40669,0.53778 -0.10541,0.32758 0.11214,0.65622 0.30161,0.45561 1.22577,0.45613 0.84968,-0.0146 1.70683,-0.0342 0.98602,0.0777 1.41617,0.72754 0.35105,0.5303 0.2223,1.16338 -0.14896,0.73238 -0.90333,1.23176 -0.32863,0.21755 -0.7936,0.34274 -0.46498,0.12519 -0.5322,0.16969 -0.11203,0.0742 -0.12234,0.18841 -0.0103,0.11424 0.054,0.21134 l -0.16432,0.10878 -1.27227,-1.4351 0.17179,-0.11372 q 0.54534,0.36945 0.96477,0.5 0.79172,0.23858 1.44152,-0.19158 0.42573,-0.28183 0.49411,-0.68158 0.0709,-0.41216 -0.14666,-0.7408 -0.22744,-0.34357 -0.5749,-0.44656 -0.43931,-0.12812 -1.51769,-0.0695 -0.84484,0.0544 -1.23207,-0.0437 -0.56597,-0.14096 -0.90218,-0.64885 -0.40049,-0.60499 -0.21461,-1.23292 0.16578,-0.56091 0.72596,-0.93174 0.23154,-0.15327 0.54734,-0.24417 0.3158,-0.0909 0.65895,-0.18915 0.13445,-0.089 0.13739,-0.23059 0.005,-0.0894 -0.0441,-0.1964 z" />
      <path
         inkscape:connector-curvature="0"
         id="path1718"
         style="letter-spacing:0.60854167px;stroke-width:0.22960162;fill:#ffffff"
         d="m 122.05324,165.37546 -0.10679,-0.1325 q 0.43239,-0.3485 0.45539,-0.56262 0.0244,-0.22671 -0.28479,-0.61028 l -2.4957,-3.09648 q -0.32039,-0.39752 -0.53586,-0.40793 -0.21411,-0.023 -0.6465,0.32549 l -0.1068,-0.1325 2.07129,-1.66942 0.1068,0.13251 q -0.40449,0.32601 -0.44842,0.55699 -0.0495,0.224 0.27085,0.62152 l 2.49569,3.09649 q 0.31477,0.39054 0.54981,0.39668 0.23504,0.006 0.63953,-0.31987 l 0.1068,0.13251 z" />
      <path
         inkscape:connector-curvature="0"
         id="path1720"
         style="letter-spacing:0.60854167px;stroke-width:0.22960162;fill:#ffffff"
         d="m 127.51971,160.27582 0.11944,0.12123 -1.86314,1.83565 -0.11945,-0.12123 q 0.40836,-0.40233 0.37853,-0.64958 -0.0239,-0.19019 -0.41368,-0.58579 l -3.14324,-3.19032 -0.34455,0.33947 q -0.52959,0.52178 -0.57014,0.86351 -0.0468,0.33535 0.36029,0.95276 l -0.11486,0.11316 -1.0687,-1.08471 3.59868,-3.54557 1.0687,1.08471 -0.11485,0.11315 q -0.60491,-0.42253 -0.94092,-0.38069 -0.34229,0.0355 -0.87827,0.56352 l -0.34455,0.33947 3.21239,3.26051 q 0.33318,0.33817 0.56109,0.35253 0.22801,0.002 0.61723,-0.38178 z" />
      <path
         inkscape:connector-curvature="0"
         id="path1722"
         style="letter-spacing:0.60854167px;stroke-width:0.22960162;fill:#ffffff"
         d="m 131.19132,153.79572 0.93946,1.25356 -2.99388,3.79901 -0.13366,-0.10534 q 0.27721,-0.35176 0.2574,-0.57265 -0.0213,-0.23346 -0.40823,-0.53839 l -3.12363,-2.46163 q -0.401,-0.31602 -0.61336,-0.2781 -0.21939,0.0324 -0.50215,0.39118 l -0.13367,-0.10534 2.94398,-3.73569 1.00603,0.79282 -0.12197,0.15477 q -0.52531,-0.28853 -0.81976,-0.18984 -0.29594,0.0861 -0.76166,0.67705 l -0.74847,0.94976 q -0.10534,0.13366 -0.10193,0.21618 -0.004,0.077 0.15817,0.20448 l 1.56182,1.23081 0.8538,-1.08342 q 0.35483,-0.45025 0.328,-0.67668 -0.0283,-0.23901 -0.38648,-0.62389 l 0.12752,-0.16181 1.63217,1.28626 -0.12752,0.16181 q -0.47201,-0.26934 -0.70249,-0.22288 -0.23198,0.0339 -0.57572,0.47005 l -0.85381,1.08342 1.73066,1.36388 q 0.21809,0.17187 0.36565,0.0715 0.14606,-0.11298 0.75592,-0.88685 0.5267,-0.66835 0.58624,-1.13462 0.0595,-0.46628 -0.29367,-1.13238 z" />
      <path
         inkscape:connector-curvature="0"
         id="path1724"
         style="letter-spacing:0.60854167px;stroke-width:0.22960162;fill:#ffffff"
         d="m 129.71601,147.54307 1.73156,0.82497 -0.11657,0.1912 q -0.59298,-0.21469 -1.17457,-0.0867 -0.66311,0.14121 -1.00817,0.70715 -0.19119,0.31356 -0.13988,0.65957 0.0437,0.34134 0.38015,0.54652 0.46652,0.28444 1.30346,-0.10747 0.76308,-0.37401 1.53082,-0.75567 0.92574,-0.34827 1.59109,0.0574 0.54299,0.33107 0.69521,0.95892 0.1761,0.72634 -0.29486,1.49877 -0.20518,0.3365 -0.573,0.64726 -0.36783,0.31077 -0.4098,0.3796 -0.0699,0.11472 -0.0308,0.22253 0.0392,0.10781 0.1386,0.16843 l -0.10259,0.16825 -1.76122,-0.75913 0.10725,-0.1759 q 0.65061,0.10295 1.08578,0.0431 0.81811,-0.12014 1.2238,-0.78549 0.26579,-0.43593 0.15797,-0.82689 -0.11081,-0.40327 -0.44731,-0.60844 -0.3518,-0.2145 -0.71012,-0.16022 -0.45214,0.0705 -1.40361,0.58145 -0.74182,0.40795 -1.13408,0.4835 -0.57227,0.11268 -1.09232,-0.20441 -0.61947,-0.3777 -0.71778,-1.02514 -0.0881,-0.57824 0.26167,-1.15182 0.14455,-0.23708 0.39189,-0.45346 0.24733,-0.21638 0.5163,-0.45104 0.0839,-0.13766 0.0265,-0.26711 -0.0332,-0.0832 -0.1233,-0.1591 z" />
    </g>
    <circle
       r="5.6885409"
       cy="149.75938"
       cx="98.689583"
       id="path1729"
       style="opacity:1;fill:#ffffff;fill-opacity:1;stroke:none;stroke-width:2.40559411;stroke-miterlimit:4;stroke-dasharray:none" />
    <path
       style="color:#000000;font-style:normal;font-variant:normal;font-weight:normal;font-stretch:normal;font-size:medium;line-height:normal;font-family:sans-serif;font-variant-ligatures:normal;font-variant-position:normal;font-variant-caps:normal;font-variant-numeric:normal;font-variant-alternates:normal;font-feature-settings:normal;text-indent:0;text-align:start;text-decoration:none;text-decoration-line:none;text-decoration-style:solid;text-decoration-color:#000000;letter-spacing:normal;word-spacing:normal;text-transform:none;writing-mode:lr-tb;direction:ltr;text-orientation:mixed;dominant-baseline:auto;baseline-shift:baseline;text-anchor:start;white-space:normal;shape-padding:0;clip-rule:nonzero;display:inline;overflow:visible;visibility:visible;opacity:1;isolation:auto;mix-blend-mode:normal;color-interpolation:sRGB;color-interpolation-filters:linearRGB;solid-color:#000000;solid-opacity:1;vector-effect:none;fill:#000000;fill-opacity:1;fill-rule:nonzero;stroke:none;stroke-width:5.94922161;stroke-linecap:butt;stroke-linejoin:miter;stroke-miterlimit:4;stroke-dasharray:none;stroke-dashoffset:0;stroke-opacity:1;color-rendering:auto;image-rendering:auto;shape-rendering:auto;text-rendering:auto;enable-background:accumulate"
       d="m 32.745134,99.047167 v 2.700513 36.82046 l 132.681606,-7.8616 V 91.185567 Z"
       id="path1064"
       inkscape:connector-curvature="0" />
    <rect
       style="opacity:1;fill:#ffffff;fill-opacity:1;stroke:none;stroke-width:0;stroke-miterlimit:4;stroke-dasharray:none"
       id="rect1056"
       width="126.34971"
       height="34.119946"
       x="36.084862"
       y="103.68788"
       transform="matrix(0.99824923,-0.05914785,0,1,0,0)" />
    <text
       xml:space="preserve"
       style="font-style:normal;font-variant:normal;font-weight:500;font-stretch:normal;font-size:29.89816284px;line-height:1.25;font-family:aakar;-inkscape-font-specification:'aakar, Medium';font-variant-ligatures:normal;font-variant-caps:normal;font-variant-numeric:normal;font-feature-settings:normal;text-align:start;letter-spacing:0px;word-spacing:0px;writing-mode:lr-tb;text-anchor:start;opacity:1;fill:#000000;fill-opacity:1;stroke:none;stroke-width:0.74743104;"
       x="43.652523"
       y="126.74876"
       id="text1052"
       transform="matrix(0.96820962,-0.05736795,0,1.0328342,0,0)"><tspan
         sodipodi:role="line"
         id="tspan1050"
         x="43.652523"
         y="126.74876"
         style="font-style:normal;font-variant:normal;font-weight:500;font-stretch:normal;font-size:29.89816284px;font-family:aakar;-inkscape-font-specification:'aakar, Medium';font-variant-ligatures:normal;font-variant-caps:normal;font-variant-numeric:normal;font-feature-settings:normal;text-align:start;writing-mode:lr-tb;text-anchor:start;stroke-width:0.74743104;">KIAZMA</tspan></text>
    <g
       id="layer1-0"
       transform="matrix(0.26458333,0,0,0.26458333,18.535062,-51.584622)"
       style="fill:#ffffff">
      <g
         id="g1765"
         style="fill:#ffffff;fill-opacity:1;stroke-linejoin:miter">
        <path
           id="path1763"
           d="m 291.72363,458.41016 c -0.0366,0 -0.0732,0.0366 -0.0732,0.0806 0,0.0249 0.0169,0.0396 0.0392,0.0396 0.0105,0 0.0222,-0.003 0.034,-0.0103 0.0439,-0.022 0.0732,-0.0586 0.0732,-0.0806 0,-0.0147 -0.0293,-0.0293 -0.0732,-0.0293 z m 1.16477,32.08529 c 0.0748,0 0.1481,0.0199 0.2122,0.0607 0.0659,0.0439 0.0806,0.13915 0.0513,0.32227 -0.044,0.2124 -0.0293,0.27832 0.0659,0.31494 0.0806,0.0293 0.10987,0.12451 0.10253,0.30762 -0.022,0.43945 0.16847,2.09472 0.25636,2.19726 0.0439,0.0586 0.11719,0.40283 0.16846,0.76906 0.0513,0.37352 0.12451,0.80565 0.17578,0.96678 0.0439,0.16112 0.1172,0.58594 0.14648,0.95215 0.0366,0.35889 0.10987,0.84229 0.16114,1.06201 0.0513,0.21973 0.0879,0.73976 0.0879,1.15723 0,0.79833 -0.0366,0.89355 -0.3662,0.89355 -0.1831,0 -0.24903,-0.12452 -0.24903,-0.46142 0,-0.13184 -0.0586,-0.35156 -0.13917,-0.49072 -0.0732,-0.13918 -0.16112,-0.40284 -0.19042,-0.58594 -0.0293,-0.18311 -0.10986,-0.43214 -0.1831,-0.54932 -0.0733,-0.12452 -0.14648,-0.35889 -0.16846,-0.53467 -0.022,-0.17578 -0.0879,-0.37353 -0.15382,-0.44677 -0.0659,-0.0733 -0.13915,-0.29298 -0.16112,-0.49073 -0.022,-0.19775 -0.10988,-0.44677 -0.18311,-0.55665 -0.0732,-0.10985 -0.13917,-0.30028 -0.13917,-0.4248 0,-0.11718 -0.0659,-0.28564 -0.13915,-0.35888 -0.0806,-0.0806 -0.16845,-0.27099 -0.19043,-0.4248 -0.0293,-0.15382 -0.10986,-0.35889 -0.17578,-0.46142 -0.0732,-0.10255 -0.15381,-0.3589 -0.1831,-0.5713 -0.0293,-0.21972 -0.11719,-0.5127 -0.19044,-0.65918 -0.0806,-0.14648 -0.14648,-0.38818 -0.14648,-0.53467 0,-0.1538 -0.0586,-0.34423 -0.14648,-0.4541 -0.18994,-0.24105 -0.20499,-0.78088 -0.0234,-0.78369 h 0.003 c 0.0664,9.8e-4 0.1969,0.0666 0.28414,0.15381 0.08,0.0762 0.1224,0.11276 0.19825,0.11276 0.07,0 0.16837,-0.0311 0.35108,-0.0908 0.21972,-0.0659 0.46142,-0.1831 0.54199,-0.25634 0.0926,-0.0882 0.2092,-0.13395 0.32248,-0.13395 z m 14.24444,0.29819 c 0.14963,0 0.20319,0.0616 0.26462,0.20196 0.0439,0.1172 0.13184,0.23438 0.18311,0.24903 0.0513,0.022 0.11718,0.13183 0.13916,0.24902 0.10987,0.42481 1.11327,1.70655 1.34033,1.70655 0.0586,0 0.16846,0.1538 0.24902,0.3369 0.18312,0.41017 0.56397,0.98145 0.65918,0.98145 0.0366,0 0.0659,0.0439 0.0659,0.10255 0,0.0586 0.10986,0.2417 0.24902,0.40283 0.3296,0.38817 0.3955,0.68115 0.20508,0.87157 -0.16846,0.16846 -0.14648,0.4248 0.0732,0.80567 0.0733,0.13183 0.13184,0.32959 0.13184,0.44678 0,0.25635 0.13916,0.6665 0.22704,0.6665 0.0293,0 0.0806,0.12451 0.10255,0.271 0.0293,0.15381 0.10985,0.36621 0.19043,0.47607 0.0732,0.10988 0.13916,0.24903 0.13916,0.3003 0,0.0586 0.0659,0.1831 0.13916,0.27832 0.0732,0.10254 0.19043,0.30029 0.24902,0.4541 0.0659,0.14648 0.15381,0.27099 0.19043,0.27099 0.13915,0 0.0879,0.28565 -0.0659,0.36622 -0.0806,0.0439 -0.14648,0.10985 -0.14648,0.1538 0,0.11719 -1.10595,1.17188 -1.31105,1.24512 -0.0493,0.0191 -0.11736,0.0278 -0.19615,0.0278 -0.28382,0 -0.70755,-0.11316 -0.90247,-0.2622 -0.0952,-0.0806 -0.27098,-0.13916 -0.38818,-0.13916 -0.1172,0 -0.22705,-0.0439 -0.24902,-0.10254 -0.0366,-0.10254 -0.69581,-0.55664 -0.80568,-0.55664 -0.0806,0 -0.46874,-0.37354 -0.84227,-0.80566 -0.18311,-0.21973 -0.30763,-0.4541 -0.35889,-0.6958 -0.0439,-0.19776 -0.12451,-0.41016 -0.17578,-0.47608 -0.18311,-0.21972 -0.36621,-1.58936 -0.38086,-2.85645 0,-0.71777 0.022,-1.23047 0.0659,-1.25244 0.0366,-0.0293 0.0806,-0.25635 0.0952,-0.51269 0.0147,-0.25634 0.0513,-0.9668 0.0879,-1.57471 0.0439,-0.60791 0.0586,-1.19385 0.0366,-1.29639 -0.0366,-0.16846 -0.007,-0.19044 0.27832,-0.25634 0.21726,-0.0499 0.36039,-0.0775 0.46048,-0.0775 z m 40.96723,12.08746 v 0 q -0.60565,3.38868 -0.77259,5.09827 -0.13861,1.00818 -0.13943,3.9491 -0.0173,0.44033 -0.0842,0.8219 -0.0542,0.33343 -0.22467,0.77003 l -0.91448,1.89684 q -0.21723,0.4953 -0.32896,0.98716 -0.091,0.4059 -0.1434,0.87056 -0.21408,2.35634 -0.28677,2.81124 -0.10151,0.79185 -0.29047,1.8145 -0.42975,2.3386 -1.4451,6.529 h -0.002 c -0.0775,-0.1076 -0.10815,-0.3403 -0.10815,-0.73976 0,-0.27099 -0.0366,-0.39551 -0.14648,-0.4834 -0.0806,-0.0732 -0.1465,-0.16844 -0.1465,-0.2124 0,-0.14648 -0.35888,-0.38818 -0.65185,-0.43944 -0.14648,-0.022 -0.36621,-0.0879 -0.49072,-0.1465 -0.12451,-0.0513 -0.53467,-0.13183 -0.90088,-0.1758 -0.37355,-0.0439 -0.73975,-0.10984 -0.81299,-0.14646 -0.0806,-0.0439 -0.54932,-0.12454 -1.06201,-0.18311 -0.50537,-0.0586 -0.98145,-0.13913 -1.05469,-0.18313 -0.0732,-0.0366 -0.41748,-0.1025 -0.76904,-0.13913 -0.34424,-0.044 -0.78369,-0.12452 -0.97412,-0.18311 -0.19776,-0.0659 -0.49805,-0.13916 -0.68115,-0.16846 l -0.32959,-0.0586 -0.0659,-0.71776 c -0.0732,-0.76904 0,-1.15724 0.26366,-1.50879 0.16847,-0.22705 0.19044,-1.55275 0.022,-1.83838 -0.0513,-0.10257 -0.14648,-0.28567 -0.20508,-0.41017 -0.13916,-0.28563 -0.19775,-0.32225 -0.62255,-0.38085 l -0.34425,-0.0512 -0.0439,-0.5127 c -0.0439,-0.564 -0.32226,-1.09864 -0.60791,-1.1719 -0.0879,-0.0293 -0.27832,-0.0952 -0.43213,-0.1611 -0.13037,-0.0559 -0.20582,-0.0833 -0.27642,-0.0833 -0.0682,0 -0.1319,0.0256 -0.23627,0.076 -0.13183,0.0659 -0.89356,0.43214 -1.69923,0.82031 -0.80566,0.39553 -1.5161,0.73973 -1.5747,0.78369 -0.0586,0.0366 -0.19043,0.10254 -0.29297,0.15381 -0.25633,0.11719 -1.58203,0.74707 -2.39503,1.12793 -0.37352,0.1831 -0.77635,0.34424 -0.89354,0.3662 -0.0549,0.0122 -0.0974,0.0194 -0.13168,0.0194 -0.0892,0 -0.12302,-0.0482 -0.17594,-0.18046 -0.0513,-0.1172 -0.0952,-0.4981 -0.10254,-0.84963 -0.007,-0.35157 -0.0293,-0.66651 -0.0586,-0.6958 -0.0732,-0.0733 -0.0586,-0.44677 0.0147,-0.49073 0.0366,-0.0293 0.0366,-0.13914 -0.0147,-0.26364 -0.0659,-0.1685 -0.0659,-0.2564 0.007,-0.36624 0.0513,-0.0806 0.0586,-0.15381 0.0146,-0.1831 -0.0513,-0.0366 -0.0879,-0.87156 -0.0806,-1.92626 0,-0.34425 0,-1.084 0,-1.3184 -0.022,-1.5747 0.044,-5.59568 0.0879,-5.62497 0.0366,-0.022 0.0439,-0.0806 0.0146,-0.12453 -0.0732,-0.11717 -0.0879,-1.875 -0.0146,-2.08006 0.0513,-0.13184 0.0146,-0.19044 -0.20507,-0.32959 -0.15381,-0.0879 -0.41748,-0.19775 -0.60791,-0.24903 -0.271,-0.0659 -0.32959,-0.10986 -0.32959,-0.25634 0,-0.11718 0.0513,-0.18311 0.14647,-0.20508 0.13917,-0.022 0.54933,-0.41748 0.54933,-0.52735 0,-0.0293 0.10254,-0.1538 0.21972,-0.28565 l 0.21973,-0.23437 5.32472,0.007 c 0.64367,10e-4 1.212,0.002 1.71382,0.002 3.07273,0 3.65238,-0.0223 3.77201,-0.10416 0.10254,-0.0659 0.49805,-0.13916 0.98144,-0.18312 0.45411,-0.0366 0.91553,-0.11717 1.03273,-0.17577 0.1245,-0.0586 0.3662,-0.13183 0.55663,-0.16113 0.1831,-0.0293 0.38817,-0.10986 0.44677,-0.1831 0.0659,-0.0806 0.19044,-0.13917 0.27833,-0.13917 0.0952,0 0.26367,-0.0806 0.38087,-0.1831 0.1245,-0.10253 0.249,-0.18311 0.28563,-0.18311 0.0293,0 0.10254,-0.0659 0.15381,-0.14648 0.0513,-0.0806 0.13184,-0.14649 0.1831,-0.14649 0.044,0 0.23438,-0.14648 0.41749,-0.32959 0.11557,-0.11226 0.20803,-0.2033 0.28292,-0.27944 h -0.003 l 6.80146,-0.40342 z m -51.98151,29.52765 0.0102,0.009 -0.0443,-0.005 h -0.003 c 0.0111,-10e-4 0.0225,-0.003 0.0341,-0.004 z M 322.6831,431.09814 c -0.007,0.007 -0.14648,0.044 -0.3076,0.0806 -0.70314,0.1758 -1.79445,0.542 -2.2632,0.76905 -0.27832,0.13185 -0.56396,0.2417 -0.6372,0.2417 -0.21973,0 -0.5713,0.24903 -0.65918,0.46143 -0.0659,0.14648 -0.20508,0.26367 -0.4834,0.38086 -0.2417,0.10986 -0.41748,0.2417 -0.46875,0.35889 -0.0513,0.10253 -0.16847,0.24169 -0.25635,0.30029 -0.17578,0.10986 -0.76172,0.86426 -0.76172,0.96678 0,0.0366 -0.14648,0.29298 -0.3296,0.5713 -0.1831,0.28565 -0.32958,0.542 -0.32958,0.5713 0,0.0366 -0.16112,0.40283 -0.36622,0.81298 -0.19774,0.41016 -0.3662,0.80567 -0.3662,0.87158 0,0.0659 -0.0659,0.2417 -0.13916,0.39551 -0.0952,0.19043 -0.15381,0.52003 -0.19044,1.04003 -0.0293,0.4175 -0.0952,0.91554 -0.1538,1.09864 -0.0586,0.18311 -0.1245,0.61524 -0.14648,0.95948 -0.0293,0.34423 -0.0952,0.75438 -0.15382,0.91552 -0.0513,0.16114 -0.13183,0.5127 -0.16845,0.79102 -0.0439,0.27832 -0.12451,0.6665 -0.19043,0.85694 -0.11718,0.35888 -0.10986,1.38427 0.007,2.1753 0.0586,0.34422 -0.022,0.62987 -0.35155,1.34032 -0.26976,0.58261 -0.54744,0.88711 -0.79793,0.88711 -0.0896,0 -0.17572,-0.039 -0.25677,-0.11807 -0.0632,-0.0632 -0.2265,-0.0914 -0.40927,-0.0914 -0.28348,0 -0.61365,0.068 -0.68937,0.17932 -0.0439,0.0732 -0.16113,0.41015 -0.24902,0.7544 -0.0806,0.34423 -0.1831,0.65185 -0.2124,0.6958 -0.0293,0.0366 -0.0732,0.19043 -0.0952,0.34423 -0.0439,0.271 -0.11718,0.37354 -1.604,2.16065 -0.37352,0.44677 -0.9082,1.1206 -1.19385,1.49414 -0.27832,0.37353 -0.57861,0.74707 -0.6665,0.82763 -0.2124,0.21973 -0.70313,0.95948 -0.94483,1.43555 -0.2124,0.41748 -0.79834,1.32569 -1.74316,2.67335 -0.30762,0.4541 -0.91553,1.1792 -1.3623,1.6333 -0.57128,0.5786 -0.81298,0.88622 -0.84961,1.05468 -0.0293,0.13184 -0.10254,0.33692 -0.16114,0.44678 -0.0586,0.11719 -0.13916,0.41014 -0.17578,0.65918 -0.0439,0.24902 -0.11719,0.50536 -0.16845,0.56396 -0.0513,0.0586 -0.1172,0.3003 -0.1465,0.52735 -0.022,0.23437 -0.0952,0.56395 -0.1538,0.73975 -0.0586,0.17577 -0.14648,0.58593 -0.19043,0.90087 -0.0439,0.31493 -0.13183,0.6958 -0.19043,0.83496 -0.0879,0.19777 -0.13184,0.77637 -0.19044,2.42432 -0.0659,1.95557 -0.0659,2.20459 0.044,2.5415 0.0732,0.20508 0.12451,0.49073 0.12451,0.63721 0,0.2124 -0.0366,0.27832 -0.19775,0.35156 -0.28565,0.11718 -0.79102,0.67383 -1.05469,1.14991 -0.44678,0.79833 -0.67383,2.19727 -0.4834,3.00292 0.0659,0.26368 0.13184,0.68848 0.16113,0.95215 0.0439,0.4248 0.271,1.5381 0.4834,2.38037 0.0439,0.16113 0.10987,0.45411 0.15381,0.65918 0.0366,0.19775 0.14648,0.62989 0.2417,0.95215 0.18311,0.65186 0.28563,1.0254 0.4541,1.68457 0.0586,0.2417 0.15381,0.54933 0.20508,0.67383 0.19043,0.43945 0.40283,1.39893 0.40283,1.83106 0,0.28564 0.044,0.49804 0.13916,0.64454 0.0732,0.1245 0.15381,0.38817 0.18311,0.58592 0.0293,0.20508 0.10985,0.4834 0.1831,0.62256 0.0732,0.13916 0.15381,0.40282 0.18311,0.58594 0.0293,0.17578 0.0952,0.38086 0.15381,0.43945 0.0586,0.0659 0.15381,0.26368 0.21973,0.43946 0.0659,0.17577 0.16113,0.37353 0.21972,0.43945 0.2417,0.271 0.38086,1.83838 0.25635,2.91504 -0.0366,0.36621 -0.0879,1.02538 -0.10987,1.45752 -0.022,0.43213 -0.0586,0.85693 -0.0879,0.9375 -0.022,0.0806 -0.0513,0.2417 -0.0659,0.36621 -0.007,0.11719 -0.0513,0.49805 -0.0806,0.84228 -0.0366,0.34424 -0.0659,1.24512 -0.0586,2.01417 0.007,1.25976 0.0293,1.4575 0.20506,2.0874 0.21974,0.8203 0.67384,1.80175 0.86427,1.91162 0.0806,0.0439 0.13916,0.15381 0.13916,0.27098 0,0.13917 0.0586,0.2344 0.2124,0.32228 0.14649,0.0806 0.22705,0.19042 0.2417,0.32227 0.0146,0.16113 0.0806,0.22705 0.2417,0.28565 0.12451,0.0366 0.24903,0.11718 0.27832,0.16845 0.0366,0.0513 0.17578,0.19775 0.31495,0.32225 0.13915,0.12452 0.24902,0.271 0.24902,0.3296 0,0.0513 0.0806,0.0952 0.1831,0.0952 0.11718,0 0.23438,0.0806 0.34424,0.21972 0.10986,0.15381 0.21974,0.21973 0.36621,0.21973 0.12451,0 0.2417,0.0586 0.29297,0.14648 0.0659,0.0952 0.17578,0.14649 0.32959,0.14649 0.15381,0 0.271,0.0513 0.33691,0.14648 0.0588,0.0802 0.11376,0.1175 0.20476,0.1175 0.0336,0 0.0721,-0.005 0.1175,-0.015 0.0411,-0.008 0.078,-0.0124 0.11152,-0.0124 0.086,0 0.14865,0.0276 0.19611,0.0856 0.0586,0.0732 0.2124,0.1172 0.38817,0.1172 0.19044,0 0.3003,0.0366 0.3296,0.11718 0.0202,0.0556 0.0579,0.0798 0.12998,0.0798 0.0323,0 0.0715,-0.005 0.11904,-0.0139 0.0328,-0.008 0.068,-0.0113 0.10478,-0.0113 0.10296,0 0.21746,0.0287 0.32003,0.0773 0.11719,0.0659 0.29297,0.11718 0.38817,0.11718 0.0952,0 0.31495,0.0513 0.49806,0.1172 0.22704,0.0806 0.81299,0.13183 1.94092,0.1831 0.88622,0.0366 1.74316,0.0952 1.90429,0.13916 0.16113,0.0366 0.41748,0.0732 0.56397,0.0732 0.29296,0 0.32226,0.0439 0.4541,0.80566 0.0293,0.13916 0.12451,0.40284 0.2124,0.58594 0.14649,0.3003 0.19043,0.3369 0.53466,0.41016 0.12464,0.0273 0.27595,0.0399 0.44056,0.0399 0.54151,0 1.22708,-0.13629 1.58094,-0.33287 0.47607,-0.271 0.56396,-0.43947 0.5493,-1.01075 -0.022,-0.67383 0.0293,-0.71778 0.86427,-0.71778 0.82031,0 0.99609,0.0952 1.03271,0.57129 0.007,0.16846 0.0366,0.33692 0.0586,0.37354 0.022,0.0366 0.28564,0.0879 0.57129,0.11718 0.29297,0.0293 0.55663,0.0879 0.58593,0.13916 0.10254,0.14649 0.0586,0.52002 -0.0806,0.7544 -0.11719,0.19043 -0.21974,0.2417 -0.54932,0.31494 -0.46142,0.0952 -0.61522,0.22705 -0.44678,0.36622 0.13184,0.10985 0.13916,0.31493 0.022,0.52 -0.0732,0.12452 -0.0732,0.16847 0,0.19044 0.10986,0.044 0.11718,0.32959 0.0147,0.43213 -0.0586,0.0586 -0.0513,0.13916 0.007,0.27833 0.0732,0.14647 0.0732,0.25634 0.0146,0.43212 -0.10254,0.29298 -0.0732,1.05468 0.0366,1.16455 0.13184,0.13183 0.10254,0.41016 -0.0366,0.49073 -0.12451,0.0659 -0.12451,0.0732 0,0.20507 0.14648,0.16113 0.16113,0.32227 0.0439,0.43945 -0.10254,0.10254 -0.13183,1.67725 -0.0293,1.94824 0.0513,0.14649 0.0439,0.2417 -0.0293,0.35154 -0.0659,0.1099 -0.0733,0.1758 -0.0147,0.2344 0.10986,0.10987 0.10254,0.3662 -0.007,0.4761 -0.0659,0.0659 -0.0586,0.1245 0.0147,0.271 0.0732,0.13913 0.0806,0.2197 0.0146,0.3662 -0.10985,0.23436 -0.11717,1.10594 -0.0146,1.17186 0.10253,0.0659 0.0952,0.4248 -0.0147,0.53464 -0.0659,0.0659 -0.0659,0.1099 0,0.1758 0.11718,0.1172 0.10986,0.4761 0,0.52 -0.0732,0.0293 -0.0732,0.0513 0,0.13186 0.0879,0.0952 0.12451,0.44678 0.0439,0.52734 -0.022,0.022 -0.0586,0.71046 -0.0806,1.52344 -0.0147,0.82032 -0.0513,1.60401 -0.0806,1.75049 -0.0422,0.19237 -0.13855,0.28857 -0.29669,0.28857 -0.0887,0 -0.1969,-0.0303 -0.32587,-0.0908 -0.13183,-0.0659 -0.32227,-0.1392 -0.43945,-0.16115 -0.10987,-0.0293 -0.21972,-0.0806 -0.2417,-0.11718 -0.022,-0.0366 -0.10986,-0.0659 -0.19776,-0.0659 -0.0879,0 -0.25634,-0.0659 -0.38086,-0.14649 -0.11718,-0.0806 -0.2783,-0.14646 -0.35888,-0.14646 -0.0732,0 -0.25635,-0.0659 -0.40282,-0.1392 -0.1465,-0.0732 -0.4468,-0.2197 -0.66652,-0.32225 -0.21972,-0.0952 -0.61523,-0.27832 -0.8789,-0.40285 -0.76905,-0.35886 -0.93018,-0.4248 -2.19728,-0.9155 -1.32024,-0.5185 -1.7589,-0.6781 -2.01912,-0.6781 -0.0964,0 -0.16825,0.0219 -0.25138,0.0555 -0.19043,0.0806 -0.3076,0.2124 -0.4541,0.50536 -0.19775,0.3955 -0.19775,0.4248 -0.2124,1.897 0,0.8276 0.0147,1.56736 0.0513,1.6479 0.0293,0.0806 0.17578,0.3003 0.32959,0.49075 0.16114,0.19045 0.28564,0.41748 0.28564,0.52005 0,0.26364 0.0732,0.41745 0.19043,0.41745 0.20507,0 0.39551,0.28565 0.39551,0.59325 0,0.2637 -0.022,0.3003 -0.23437,0.3955 -0.13184,0.0513 -0.37354,0.1172 -0.53467,0.1465 -0.16114,0.0293 -0.3296,0.0806 -0.3662,0.1172 -0.044,0.0293 -0.40285,0.1245 -0.80568,0.2124 -0.40282,0.0879 -1.11328,0.2417 -1.5747,0.34423 -0.46142,0.10257 -1.09864,0.22707 -1.4209,0.28567 -0.31494,0.0512 -0.68116,0.1318 -0.80567,0.17576 -0.12451,0.0366 -0.57129,0.13914 -0.99609,0.21974 -1.92626,0.3662 -2.24121,0.47606 -2.61476,0.87157 -0.1831,0.19773 -0.2417,0.32959 -0.2783,0.65918 -0.022,0.22705 -0.0806,0.54931 -0.12452,0.71775 -0.0439,0.19045 -0.0659,0.7105 -0.0439,1.3184 0.0439,1.1279 0.16113,1.5454 0.53466,1.95555 0.44678,0.49805 0.56397,0.71045 0.52002,0.92285 -0.0366,0.2051 -0.022,0.2124 0.28565,0.2637 0.1831,0.0219 0.41748,0.11716 0.52733,0.20505 0.16847,0.12451 0.3003,0.15381 0.79103,0.15381 0.49072,0 0.65185,-0.0293 0.9375,-0.18311 0.6372,-0.32959 1.28907,-1.36965 1.43554,-2.27785 0.10253,-0.6372 0.022,-1.13523 -0.21972,-1.35496 -0.16845,-0.14649 -0.18311,-0.49074 -0.0293,-0.64454 0.10255,-0.10253 0.27832,-0.1318 1.38428,-0.23437 0.27832,-0.022 0.68847,-0.0952 0.91553,-0.15383 0.22704,-0.0586 0.88624,-0.1318 1.47216,-0.16843 0.58594,-0.0293 1.15723,-0.0952 1.26708,-0.13917 0.1172,-0.0439 0.57863,-0.0806 1.04005,-0.0806 0.87891,0 1.06201,-0.0293 1.06201,-0.1831 0,-0.11719 0.16114,-0.16114 0.95214,-0.24904 0.34425,-0.0366 0.7251,-0.10985 0.8423,-0.1538 0.1245,-0.0439 0.58594,-0.10986 1.0254,-0.1465 0.44677,-0.0366 0.98876,-0.1245 1.20848,-0.19774 0.26872,-0.0806 0.58674,-0.1181 1.15754,-0.1181 0.0515,0 0.10508,3.1e-4 0.16082,9.4e-4 0.79834,0 0.95216,0.0219 1.22316,0.1611 0.40282,0.2124 0.43212,0.2637 0.4834,0.7764 0.022,0.2417 0.0952,0.93015 0.1538,1.53806 0.14648,1.4502 0.1538,2.15334 0,2.36574 -0.0751,0.10594 -0.22733,0.16136 -0.41187,0.16136 -0.12155,0 -0.25711,-0.0241 -0.3938,-0.0735 -0.0837,-0.0319 -0.15533,-0.0501 -0.21646,-0.0501 -0.27587,0 -0.33752,0.3697 -0.32553,1.5149 0.007,0.7837 0.0293,0.9668 0.29296,2.3804 0.0806,0.43944 0.16846,0.9961 0.19776,1.22314 0.0293,0.30761 0.0879,0.46142 0.2124,0.57861 0.0952,0.0879 0.17579,0.22705 0.17579,0.30029 0,0.0659 0.0733,0.3003 0.16113,0.5127 0.11719,0.29296 0.23437,0.43946 0.47607,0.60056 0.34425,0.21975 0.87891,0.4102 1.17188,0.4102 0.0952,0 0.35887,0.0659 0.58593,0.14646 0.38914,0.13734 0.77264,0.20429 1.11872,0.20429 0.53982,0 0.98849,-0.16285 1.22502,-0.47528 0.1172,-0.14647 0.25636,-0.31497 0.31496,-0.38087 0.16114,-0.16845 0.54931,-1.0034 0.6958,-1.47216 0.14648,-0.4541 0.15381,-1.28174 0.022,-1.58934 -0.14648,-0.3369 -0.52003,-0.6519 -0.9082,-0.7764 -0.64453,-0.20506 -1.01807,-0.35154 -1.11328,-0.44676 -0.16845,-0.16114 -0.30762,-0.97414 -0.38819,-2.26318 -0.13916,-2.26316 -0.19776,-3.2959 -0.2417,-4.11621 l -0.0439,-0.80565 0.24902,-0.2051 c 0.28176,-0.2254 0.64594,-0.32183 1.42334,-0.32183 0.33405,0 0.74442,0.0178 1.25732,0.0508 0.7837,0.0439 1.62598,0.13184 1.86768,0.1831 0.2417,0.0513 0.87158,0.13185 1.3916,0.1758 0.52735,0.0513 1.18652,0.1318 1.47217,0.1904 0.28565,0.0586 1.04735,0.12454 1.68457,0.1465 0.63721,0.0293 1.37695,0.0952 1.64063,0.1465 0.26367,0.0586 1.07665,0.13915 1.80175,0.1758 0.7251,0.0439 1.42823,0.10984 1.56006,0.1538 0.13916,0.0366 0.49072,0.0879 0.78369,0.1172 0.79835,0.0732 0.79835,0.0732 0.66651,0.95944 -0.0952,0.62256 -0.0952,0.80566 -0.0147,1.19386 0.0586,0.28564 0.1465,0.4907 0.2417,0.5493 0.0952,0.0733 0.16114,0.22706 0.19044,0.4834 0.0366,0.25635 0.10254,0.4248 0.22706,0.5347 0.2417,0.2197 0.59325,1.07663 0.65917,1.582 0.0806,0.6665 0.57129,1.875 0.78369,1.9629 0.0366,0.0146 0.16114,0.10986 0.27832,0.2124 0.29297,0.2417 0.85692,0.52734 1.17187,0.5786 0.13915,0.022 0.49073,0.10255 0.76905,0.1758 0.4541,0.1245 1.40625,0.2197 3.31054,0.3442 0.15546,0.0106 0.27314,0.017 0.36692,0.017 0.22876,0 0.31527,-0.0376 0.46072,-0.1415 0.12852,-0.09 0.18936,-0.1298 0.40092,-0.1298 0.15017,0 0.37624,0.0201 0.7563,0.0566 0.5127,0.0439 1.1426,0.14646 1.39893,0.227 0.25635,0.0733 0.52002,0.1392 0.58594,0.1392 0.0659,0 0.31493,0.0659 0.55663,0.1465 0.49806,0.1611 1.355,0.3735 2.9297,0.7324 0.21554,0.0507 0.9455,0.074 1.74582,0.074 1.04895,0 2.21875,-0.04 2.50955,-0.11057 0.24903,-0.0586 0.95215,-0.1392 1.55273,-0.18313 0.6079,-0.044 1.2378,-0.12451 1.3916,-0.17577 0.16114,-0.0586 0.5127,-0.1245 0.79102,-0.1538 0.27832,-0.022 0.63721,-0.0879 0.79834,-0.1465 0.16114,-0.0513 0.47608,-0.1538 0.71044,-0.2124 0.30763,-0.0879 0.46144,-0.1831 0.62257,-0.38087 0.10986,-0.13913 0.36621,-0.42483 0.56396,-0.62253 l 0.35157,-0.3589 -0.0293,-0.5713 c -0.022,-0.52735 -0.0439,-0.58594 -0.31494,-0.9448 -0.16113,-0.2051 -0.41016,-0.5347 -0.54932,-0.7251 -0.30029,-0.4102 -0.82031,-0.76174 -1.1206,-0.76174 -0.11719,0 -0.31494,-0.0733 -0.43946,-0.16846 -0.2124,-0.1465 -0.34423,-0.16846 -1.30371,-0.19775 -0.91552,-0.0293 -1.09863,-0.0586 -1.23047,-0.17579 -0.12725,-0.11406 -0.37548,-0.17822 -0.60287,-0.17822 -0.1521,0 -0.29489,0.0287 -0.3859,0.0904 -0.10253,0.0659 -0.27099,0.11716 -0.37353,0.11716 -0.1538,0 -0.1831,-0.0366 -0.1831,-0.20506 0,-0.1831 -0.0439,-0.2124 -0.60792,-0.40285 -0.32958,-0.10985 -0.71778,-0.22705 -0.85693,-0.26365 -0.30029,-0.0659 -1.24512,-0.57863 -1.24512,-0.6665 0,-0.0367 -0.0659,-0.0879 -0.15381,-0.1099 -0.10252,-0.0366 -0.13916,-0.1025 -0.12452,-0.20507 0.022,-0.16113 0.0293,-0.16113 2.21925,-0.17578 2.27051,-0.007 4.02832,-0.10255 4.2627,-0.22705 0.0732,-0.0366 0.38085,-0.10986 0.68115,-0.16113 0.3003,-0.0513 0.60058,-0.13184 0.65918,-0.18311 0.0586,-0.0513 0.2124,-0.14646 0.34424,-0.2124 0.12451,-0.0659 0.25634,-0.19043 0.28564,-0.27832 0.022,-0.0952 0.15381,-0.271 0.29297,-0.39551 0.33691,-0.31493 0.37353,-0.53467 0.17577,-1.01806 -0.0879,-0.21973 -0.19042,-0.40284 -0.22704,-0.40284 -0.0366,0 -0.11719,-0.10983 -0.18311,-0.24169 -0.22705,-0.43944 -0.43945,-0.55664 -1.04003,-0.56394 -0.5127,0 -0.53467,-0.007 -0.61524,-0.1978 l -0.0806,-0.20506 -0.0732,0.19776 c -0.0732,0.1831 -0.11717,0.2051 -0.4248,0.2051 -0.35889,0 -1.06201,-0.2637 -1.22315,-0.46146 -0.0513,-0.0659 -0.22705,-0.13184 -0.38818,-0.16114 -0.2124,-0.0366 -0.31494,-0.1025 -0.37354,-0.22704 -0.0732,-0.14646 -0.13916,-0.17576 -0.55664,-0.19043 -0.4248,-0.022 -0.49072,-0.0439 -0.62988,-0.22703 -0.14648,-0.2051 -0.15381,-0.271 -0.13183,-2.45363 0.0147,-1.53807 0.0512,-2.30713 0.10985,-2.42432 0.0513,-0.10255 0.19044,-0.2124 0.30763,-0.24905 0.12451,-0.0366 0.26367,-0.1025 0.31494,-0.14646 0.10253,-0.0805 0.11718,-0.57864 0.022,-0.91554 -0.0439,-0.1318 -0.10986,-1.14256 -0.15381,-2.2339 -0.0439,-1.0986 -0.10986,-2.2705 -0.15381,-2.6147 -0.22705,-2.0874 -0.23437,-2.51955 -0.0732,-4.9805 0.0879,-1.31102 0.19042,-2.85643 0.22705,-3.44237 0.0366,-0.58593 0.0952,-1.1499 0.13917,-1.25976 0.0366,-0.10987 0.10985,-0.7251 0.1538,-1.36963 0.0366,-0.64454 0.10986,-1.25977 0.14648,-1.36964 0.13916,-0.35155 0.23438,-2.34374 0.20508,-4.24804 -0.022,-1.77978 -0.0293,-1.91162 -0.1831,-2.18994 -0.0879,-0.16112 -0.19043,-0.37354 -0.2417,-0.47607 -0.10986,-0.2417 -0.34424,-0.63721 -0.63721,-1.05469 -0.19775,-0.28566 -0.25635,-0.44678 -0.30762,-0.93018 -0.0366,-0.31494 -0.10253,-0.62256 -0.14648,-0.68115 -0.0439,-0.0513 -0.10985,-0.271 -0.15381,-0.49073 -0.0586,-0.31493 -0.12451,-0.43945 -0.32959,-0.60058 -0.10699,-0.0901 -0.20099,-0.20618 -0.23875,-0.29162 h -0.004 l 9.63713,-19.30066 -8.10886,-3.93277 -0.0168,-0.008 -9.75713,16.95581 v 0 c -0.38131,-0.26883 -1.25097,-0.91853 -2.242,-1.677 -1.31837,-1.01075 -2.44629,-1.83106 -2.53417,-1.83106 -0.0806,0 -0.2124,-0.0513 -0.29298,-0.10987 -0.0879,-0.0659 -0.30762,-0.10253 -0.57862,-0.10985 -0.249,0 -0.4834,-0.0366 -0.52734,-0.0806 -0.0208,-0.0208 -0.0719,-0.032 -0.15921,-0.032 -0.12741,0 -0.33187,0.0238 -0.6318,0.0759 -0.3349,0.0595 -0.51665,0.0888 -0.62215,0.0888 -0.10212,0 -0.1327,-0.0275 -0.16154,-0.0815 -0.0418,-0.0772 -0.14282,-0.11481 -0.28086,-0.11481 -0.17642,0 -0.41326,0.0616 -0.66397,0.18073 -0.34043,0.15295 -0.64096,0.23275 -0.88595,0.23275 -0.11872,0 -0.22438,-0.0187 -0.31522,-0.057 -0.11719,-0.0439 -0.53466,-0.11719 -0.91553,-0.14649 -0.78369,-0.0659 -1.56738,-0.21972 -1.8164,-0.35156 -0.0879,-0.0513 -0.44678,-0.10986 -0.79103,-0.13184 l -0.62987,-0.0439 -0.32227,-0.34424 c -0.34423,-0.37353 -0.57128,-0.46875 -1.38426,-0.57861 -0.29298,-0.0439 -0.58595,-0.13184 -0.70314,-0.21973 -0.10986,-0.0806 -0.43946,-0.2124 -0.7251,-0.28564 -0.30761,-0.0806 -0.55664,-0.19043 -0.60058,-0.25635 -0.0366,-0.0732 -0.11718,-0.12451 -0.16846,-0.12451 -0.0659,0 -0.10986,-0.0732 -0.10986,-0.18311 0,-0.19043 -0.21973,-0.43945 -0.68848,-0.78369 -0.19836,-0.14094 -0.2814,-0.18887 -0.45058,-0.18887 -0.0682,0 -0.15043,0.008 -0.25987,0.0204 -0.10423,0.0133 -0.18833,0.0206 -0.26203,0.0206 -0.1697,0 -0.28432,-0.0385 -0.46307,-0.13043 -0.15551,-0.0797 -0.23721,-0.11609 -0.31366,-0.11609 -0.064,0 -0.12423,0.0254 -0.221,0.0721 -0.23499,0.10964 -0.40854,0.17279 -0.57141,0.17279 -0.29406,0 -0.55336,-0.20575 -1.07654,-0.71479 -0.4834,-0.46875 -0.65186,-0.55664 -1.17188,-0.60791 -0.24902,-0.0293 -0.55664,-0.10254 -0.67384,-0.16113 -0.20506,-0.10254 -0.2197,-0.13916 -0.2197,-0.53467 0,-0.68115 -0.0879,-0.74707 -0.9375,-0.74707 h -0.70314 l -0.2417,-0.271 c -0.1831,-0.20507 -0.2417,-0.3369 -0.2417,-0.542 0,-0.28563 0.11719,-0.61522 0.26368,-0.77635 0.0513,-0.0513 0.10986,-0.23438 0.13916,-0.40285 0.0293,-0.16844 0.11718,-0.4248 0.19043,-0.57127 0.0659,-0.13917 0.1538,-0.49073 0.17577,-0.76905 0.0293,-0.28564 0.0952,-0.55664 0.13917,-0.61523 0.0439,-0.0586 0.13916,-0.3003 0.2124,-0.54932 0.29297,-0.98877 0.29297,-0.9668 0.0806,-1.56738 -0.10254,-0.31495 -0.22704,-0.61525 -0.27832,-0.67383 -0.0513,-0.0586 -0.13184,-0.24902 -0.18312,-0.4248 -0.0439,-0.16846 -0.11718,-0.30762 -0.1538,-0.30762 -0.0439,0 -0.0732,-0.0439 -0.0732,-0.10254 0,-0.0513 -0.0952,-0.271 -0.2124,-0.49072 -0.11719,-0.21974 -0.23438,-0.542 -0.26366,-0.7251 -0.0293,-0.18311 -0.0952,-0.41016 -0.1465,-0.5127 -0.0513,-0.10254 -0.10986,-0.32959 -0.13916,-0.51269 -0.0293,-0.17578 -0.10986,-0.42481 -0.19044,-0.54932 -0.0732,-0.11719 -0.1538,-0.37353 -0.1831,-0.57129 -0.0293,-0.19044 -0.11718,-0.4248 -0.19042,-0.52002 -0.0806,-0.10254 -0.16114,-0.32959 -0.19043,-0.52002 -0.0187,-0.16223 -0.0534,-0.266 -0.0814,-0.266 -0.005,0 -0.01,0.003 -0.0139,0.01 -0.003,0.004 -0.006,0.006 -0.009,0.006 -0.0359,0 -0.11578,-0.1937 -0.19568,-0.46003 -0.2124,-0.75439 -0.49805,-1.52343 -0.59325,-1.61865 -0.0439,-0.0439 -0.0806,-0.13183 -0.0806,-0.19775 0,-0.0586 -0.0659,-0.37355 -0.14649,-0.6958 -0.10254,-0.41015 -0.14648,-0.83495 -0.14648,-1.43555 v -0.8496 l 0.28564,-0.41016 c 0.38818,-0.54932 0.56397,-1.36964 0.29297,-1.36964 -0.0659,0 -0.83497,-0.7544 -1.54541,-1.53076 -0.40283,-0.4248 -0.44678,-0.65918 -0.16846,-0.9082 0.0952,-0.0879 0.27832,-0.24902 0.40283,-0.36621 0.15421,-0.13493 0.30277,-0.20361 0.4729,-0.20361 0.21775,0 0.4708,0.11252 0.81617,0.34278 0.27832,0.19042 0.62988,0.38817 0.7837,0.43944 0.1538,0.0513 0.35155,0.14649 0.43944,0.21241 0.0879,0.0586 0.20508,0.10985 0.271,0.10985 0.0586,0 0.20508,0.0513 0.32226,0.10987 0.13135,0.0686 0.2742,0.10103 0.41825,0.10103 0.39413,0 0.79687,-0.2427 0.99533,-0.65034 0.0879,-0.18311 0.16112,-0.38819 0.16112,-0.46143 0.007,-0.21973 0.32228,-0.46875 0.7544,-0.59326 0.43946,-0.12451 0.54932,-0.21973 0.6372,-0.52734 0.0586,-0.23438 0.1465,-0.28565 0.5713,-0.39551 0.3003,-0.0732 0.31494,-0.0879 0.3589,-0.44678 0.0293,-0.2417 0.11718,-0.4541 0.23436,-0.59326 l 0.19044,-0.21973 0.60058,0.0439 c 0.1828,0.0144 0.31189,0.0233 0.40906,0.0233 0.1987,0 0.26391,-0.0372 0.38196,-0.14054 0.13915,-0.1245 0.2124,-0.30028 0.28564,-0.6665 0.0879,-0.43945 0.0879,-0.6372 -0.0293,-1.64794 -0.0732,-0.62989 -0.13184,-1.35498 -0.13916,-1.60401 0,-0.53467 0.19776,-1.10595 0.52002,-1.46485 0.20508,-0.23437 0.24902,-0.38817 0.21973,-0.7251 -0.007,-0.0879 0.0366,-0.5493 0.0952,-1.02538 0.26366,-2.09472 0.50536,-3.10547 0.81299,-3.39844 0.36621,-0.34424 0.40283,-0.83496 0.10254,-1.25976 -0.10987,-0.15382 -0.13184,-0.26367 -0.0952,-0.46142 0.0366,-0.22706 0.007,-0.32227 -0.2124,-0.64454 -0.14648,-0.2124 -0.28565,-0.47606 -0.31495,-0.60059 -0.0293,-0.11717 -0.16112,-0.32959 -0.30028,-0.46875 -0.23438,-0.24169 -0.31494,-0.54199 -0.16846,-0.62988 0.0732,-0.0439 -0.29296,-0.39551 -0.56396,-0.54199 -0.0879,-0.0439 -0.3003,-0.27832 -0.46875,-0.52002 -0.16845,-0.2417 -0.33692,-0.43945 -0.36621,-0.43945 -0.0293,0 -0.24904,-0.16114 -0.4834,-0.35158 -0.23438,-0.19042 -0.62256,-0.4248 -0.85694,-0.51268 -0.2417,-0.0879 -0.50537,-0.2417 -0.59326,-0.32959 -0.0806,-0.0879 -0.32226,-0.31493 -0.52734,-0.50537 -0.20508,-0.19043 -0.3955,-0.40283 -0.41748,-0.47608 -0.0806,-0.24902 -0.49072,-0.43945 -1.04737,-0.49072 -0.28565,-0.0293 -0.71045,-0.11719 -0.93017,-0.19776 -0.22705,-0.0732 -0.54932,-0.13915 -0.7251,-0.13915 -0.16846,0 -0.50538,-0.0513 -0.73242,-0.10987 -0.23438,-0.0586 -0.43213,-0.10254 -0.43946,-0.10254 z m -37.747,1.65992 c -0.3039,0 -0.3711,0.0348 -0.46344,0.12719 -0.0733,0.0806 -0.18311,0.19043 -0.23438,0.23438 -0.22705,0.2124 -0.33691,0.35889 -0.38086,0.50537 -0.022,0.0806 -0.13916,0.25635 -0.24902,0.38086 -0.21973,0.24902 -0.32227,0.43214 -0.4248,0.78369 -0.0659,0.20508 -0.0952,0.21973 -0.4541,0.2417 -0.0467,0.002 -0.0896,0.003 -0.1295,0.003 -0.2293,0 -0.36263,-0.0398 -0.58096,-0.16452 -0.17578,-0.10987 -0.40284,-0.19042 -0.49804,-0.19042 -0.10254,0 -0.542,-0.0659 -0.98877,-0.13917 -0.47533,-0.0836 -0.79798,-0.11873 -1.32386,-0.11873 -0.21147,0 -0.45584,0.006 -0.75622,0.0162 -0.81299,0.022 -1.34765,0.0732 -1.48682,0.13182 -0.11719,0.0513 -0.37353,0.11718 -0.56396,0.14648 -0.19043,0.0293 -0.38087,0.0952 -0.42481,0.15382 -0.0513,0.0513 -0.20508,0.13183 -0.35156,0.1831 -0.14648,0.0513 -0.35156,0.14648 -0.44678,0.21973 -0.0952,0.0806 -0.2124,0.13915 -0.25634,0.13915 -0.0806,0 -0.32958,0.16114 -0.73975,0.47608 -0.0806,0.0659 -0.27833,0.21242 -0.43945,0.32959 -0.58594,0.41748 -1.10596,0.92286 -1.39161,1.34766 -0.49804,0.73242 -0.77637,1.33301 -0.76171,1.6333 0.007,0.10987 -0.0293,0.30029 -0.0733,0.42481 -0.13182,0.32226 -0.249,1.7871 -0.2783,3.55224 l -0.0293,1.56738 0.271,0.84229 c 0.21972,0.68848 0.25634,0.91553 0.22704,1.24512 -0.0659,0.68847 -0.20508,1.42089 -0.32226,1.64063 -0.14648,0.30028 -0.16846,1.49413 -0.0293,1.58935 0.0586,0.0366 0.32227,0.10255 0.57862,0.15381 0.40283,0.0806 0.49804,0.13184 0.6079,0.32226 0.0806,0.13184 0.13916,0.35888 0.13916,0.55664 0,0.37354 0.15381,0.57862 0.43214,0.57862 0.61523,0 0.93017,0.6958 0.61523,1.3623 -0.11719,0.2417 -0.11719,0.26367 -0.007,0.32959 0.44678,0.24903 0.7251,0.62256 0.82764,1.09131 0.0293,0.13916 0.13916,0.38086 0.24902,0.52734 0.23212,0.32608 0.51844,0.46866 1.03522,0.46866 0.16806,0 0.36052,-0.0151 0.58344,-0.0438 0.70251,-0.09 1.05428,-0.12979 1.27804,-0.12979 0.15881,0 0.25311,0.0201 0.36258,0.0565 0.30029,0.0952 0.6958,0.47608 0.9668,0.93018 0.10254,0.16846 0.32959,0.53467 0.51269,0.80566 0.43947,0.66651 0.42481,0.7837 -0.11718,1.21582 -0.2417,0.19043 -0.5127,0.37354 -0.60791,0.41016 -0.0952,0.0366 -0.29297,0.23438 -0.43946,0.43213 -0.14648,0.19775 -0.38818,0.4834 -0.53468,0.64453 -0.3369,0.37354 -0.65184,0.82031 -0.72508,1.05469 -0.0293,0.10255 -0.11719,0.30029 -0.19042,0.43945 -0.0806,0.13916 -0.13917,0.32227 -0.13917,0.40283 0,0.0806 -0.0659,0.2417 -0.14649,0.36621 -0.0806,0.11719 -0.14648,0.271 -0.14648,0.33692 0,0.0659 -0.16113,0.26367 -0.36621,0.43214 -0.32227,0.2783 -0.36621,0.34423 -0.36621,0.60057 0,0.16113 -0.0366,0.35889 -0.0806,0.43946 -0.0513,0.0879 -0.10987,0.40283 -0.14647,0.70312 -0.0366,0.30762 -0.10988,0.60059 -0.1758,0.66651 -0.0586,0.0732 -0.14648,0.23437 -0.19043,0.36621 -0.0513,0.13183 -0.2124,0.46875 -0.36621,0.74707 -0.15381,0.28564 -0.30029,0.58593 -0.32959,0.67382 -0.022,0.0879 -0.0732,0.19776 -0.10987,0.23438 -0.0293,0.044 -0.1831,0.32226 -0.34423,0.62256 -0.15381,0.3003 -0.38087,0.71045 -0.49072,0.91553 -0.58595,1.04737 -1.06201,2.04345 -1.06201,2.21923 0,0.10987 -0.0366,0.31494 -0.0806,0.45411 -0.0366,0.13916 -0.11719,0.73973 -0.16847,1.333 -0.0659,0.70313 -0.1538,1.2085 -0.249,1.46485 -0.1831,0.47608 -0.38087,1.3916 -0.38087,1.74316 0,0.13916 -0.0659,0.58594 -0.13916,0.98877 -0.0806,0.40283 -0.19775,1.1792 -0.26367,1.73585 -0.0586,0.5493 -0.16113,1.13524 -0.21973,1.3037 -0.0586,0.16846 -0.12451,0.52002 -0.15381,0.79102 -0.0513,0.50538 -0.2417,1.02538 -0.49804,1.31103 -0.0949,0.11135 -0.2757,0.17163 -0.42734,0.17163 -0.11762,0 -0.21768,-0.0362 -0.24648,-0.11303 -0.0586,-0.14649 -0.63722,-0.41015 -1.0547,-0.47608 -0.1831,-0.0366 -0.40283,-0.0806 -0.49072,-0.10987 -0.028,-0.01 -0.0556,-0.0151 -0.0828,-0.0151 -0.0724,0 -0.14297,0.0358 -0.21745,0.11032 -0.0733,0.0733 -0.21974,0.16114 -0.31496,0.19043 -0.0952,0.022 -0.24169,0.15381 -0.32226,0.27832 -0.0806,0.13183 -0.26368,0.30763 -0.40283,0.40283 -0.13915,0.0879 -0.44678,0.29297 -0.68115,0.46143 -0.22706,0.16113 -0.50538,0.29297 -0.60792,0.29297 -0.30761,0 -1.65528,0.21973 -1.875,0.3003 -0.10986,0.0439 -0.2124,0.1245 -0.23438,0.17577 -0.0146,0.0513 -0.16112,0.13916 -0.31493,0.18311 -0.49072,0.16112 -0.95947,0.43212 -1.01074,0.57862 -0.0293,0.0952 -0.13916,0.16845 -0.30763,0.19775 -0.0643,0.0117 -0.1147,0.0187 -0.15725,0.0187 -0.11719,0 -0.1752,-0.0533 -0.30417,-0.20916 -0.15828,-0.19455 -0.4086,-0.28815 -0.64668,-0.28815 -0.2908,0 -0.5633,0.13956 -0.62773,0.40533 -0.0366,0.12452 -0.0952,0.1758 -0.22705,0.1758 -0.10254,0 -0.18312,-0.0366 -0.18312,-0.0733 0,-0.0439 -0.0513,-0.0732 -0.10985,-0.0732 -0.0586,0 -0.10985,-0.0513 -0.10985,-0.10986 0,-0.0586 -0.044,-0.10986 -0.10255,-0.10986 -0.12451,0 -0.90088,0.60058 -1.04737,0.80566 -0.0586,0.0806 -0.14648,0.14648 -0.19043,0.14648 -0.0513,0 -0.13183,0.0659 -0.17578,0.13916 -0.0513,0.0806 -0.19043,0.16114 -0.30761,0.19042 -0.12452,0.0293 -0.29296,0.13185 -0.37354,0.2344 -0.18312,0.23436 -0.73242,0.38817 -1.39162,0.38817 -0.33691,0 -0.53466,0.0366 -0.65918,0.12451 -0.19775,0.13916 -1.27441,0.23438 -3.12012,0.27832 -0.52734,0.0147 -1.1499,0.0586 -1.38427,0.10254 -0.099,0.0186 -0.21243,0.0358 -0.32144,0.0496 v 0 l -7.90006,-17.62698 -0.004,-0.009 -5.13857,2.59247 q -0.0445,0.002 -0.0112,0.0472 l 5.28494,11.65156 h -0.002 c 0.0437,0.1 0.0876,0.2 0.13159,0.30004 0.2417,0.54199 0.62256,1.43554 0.85694,1.97754 0.22705,0.54199 0.46875,1.10595 0.52734,1.24512 0.0659,0.13915 0.32959,0.74706 0.58594,1.35497 0.26367,0.60059 0.59326,1.36231 0.73242,1.68457 0.44678,1.0254 0.73242,1.75049 0.78369,1.99219 0.0439,0.19777 0.0146,0.26367 -0.27099,0.56397 -0.23438,0.2417 -0.35889,0.43945 -0.42481,0.70312 -0.0659,0.271 -0.15381,0.40283 -0.30762,0.50538 -0.47607,0.3003 -1.25976,1.16454 -1.50879,1.6699 -0.13916,0.271 -0.30029,0.59328 -0.36621,0.7178 -0.10254,0.1831 -0.11718,0.55663 -0.11718,2.41698 0,1.94824 0.0146,2.22656 0.12451,2.43164 0.0732,0.12451 0.15381,0.42481 0.17578,0.65918 0.0293,0.23438 0.0952,0.6079 0.15381,0.82764 0.0586,0.21972 0.13183,0.94482 0.17578,1.61133 0.0366,0.6665 0.11719,1.3916 0.17578,1.61133 0.0586,0.21972 0.13916,0.71044 0.18311,1.0913 0.0439,0.38086 0.10986,0.74707 0.14648,0.813 0.0366,0.0659 0.10254,0.35155 0.14648,0.62987 0.0439,0.27833 0.12452,0.59327 0.18311,0.71045 0.0513,0.10988 0.13916,0.38818 0.18311,0.62256 0.0513,0.22705 0.13183,0.49805 0.1831,0.60059 0.0513,0.10253 0.11719,0.32226 0.14649,0.47607 0.0293,0.16113 0.10986,0.4541 0.1831,0.65918 0.2417,0.68118 0.37353,1.09863 0.52002,1.61133 0.35889,1.23779 0.43213,1.47949 0.53467,1.75781 0.0586,0.16114 0.10986,0.39554 0.11719,0.5127 0,0.12451 0.0513,0.30029 0.11718,0.3955 0.0659,0.0879 0.16114,0.35154 0.21241,0.57864 0.0513,0.227 0.14648,0.56394 0.20507,0.74705 0.271,0.82765 0.41016,1.3916 0.45411,1.83105 0.0293,0.25635 0.0952,0.59326 0.1538,0.7471 0.0513,0.14646 0.11719,0.51267 0.13916,0.80564 0.0293,0.29296 0.0806,0.70312 0.11719,0.9082 0.10986,0.56396 -0.0293,1.03272 -0.64453,2.18996 -0.30762,0.56395 -0.58594,1.062 -0.62256,1.11326 -0.0659,0.0805 -0.57128,1.01074 -0.84228,1.56004 -0.0733,0.1392 -0.17578,0.3003 -0.21973,0.3516 -0.0513,0.0513 -0.11719,0.13914 -0.14648,0.1904 -0.0806,0.1172 -1.14259,0.40285 -1.99219,0.52736 -0.6665,0.0952 -0.95947,0.22704 -0.95947,0.43214 0,0.0513 -0.14649,0.249 -0.32959,0.44676 -0.37459,0.41028 -0.63102,0.71454 -0.78876,0.93734 h -0.002 q -2.10439,1.31407 -0.71041,3.7208 0.18731,0.2705 0.43528,0.42005 0.25598,0.1648 0.86909,0.35541 0.12261,0.17364 0.28647,0.22857 0.9767,0.18512 1.99922,0.31531 0.91681,0.12216 1.73001,0.12216 1.56339,0 2.74381,-0.45144 1.09651,-0.42056 1.60811,-1.08771 0.19455,-0.24815 0.33258,-0.5943 l 0.14648,-0.4483 h -0.002 c 0.0809,-0.0793 0.11531,-0.17945 0.10399,-0.30285 h -0.002 l 0.20208,-0.6185 q 0.17137,-0.3525 0.44434,-0.6034 0.22801,-0.21573 0.62123,-0.4487 0.0768,-0.0703 1.77801,-0.9324 l 0.26311,-0.16373 h 0.003 c 0.0179,0.0187 0.0357,0.04 0.0545,0.0644 0.13915,0.17578 0.14648,0.29294 0.14648,1.50144 0.007,0.8643 -0.0293,1.46487 -0.0952,1.7505 l -0.10254,0.43214 0.3003,0.27832 0.30029,0.271 0.0879,-0.21973 c 0.0513,-0.13183 0.10254,-0.9668 0.13184,-2.14599 0.0366,-1.45754 0.0732,-1.97754 0.1538,-2.13134 0.0586,-0.1099 0.12452,-0.3369 0.15381,-0.5054 0.0366,-0.2124 0.19043,-0.4907 0.52735,-0.9375 0.25636,-0.35155 0.50538,-0.7397 0.54933,-0.86424 0.0439,-0.11716 0.10987,-0.2417 0.15381,-0.271 0.12451,-0.0806 0.0806,-0.97412 -0.0586,-1.17186 -0.16114,-0.21974 -0.14648,-0.5127 0.0293,-0.8423 0.40283,-0.74707 -0.0293,-1.88965 -1.09132,-2.9004 -0.24902,-0.23436 -0.44678,-0.4541 -0.44678,-0.4907 0,-0.1126 -0.25434,-0.2253 -0.4406,-0.2253 -0.0439,0 -0.0839,0.006 -0.11604,0.0202 -0.0659,0.0308 -0.13898,0.045 -0.21163,0.045 -0.1697,0 -0.33694,-0.0779 -0.40361,-0.20615 -0.1831,-0.34426 -0.24902,-1.8164 -0.16113,-3.479 0.0513,-0.8936 0.12451,-1.73587 0.16113,-1.875 0.0439,-0.13186 0.12452,-0.8643 0.18311,-1.6187 0.0586,-0.7544 0.13916,-1.582 0.17578,-1.83103 0.044,-0.25635 0.10986,-0.98877 0.15381,-1.6333 0.0366,-0.64453 0.10986,-1.35497 0.16114,-1.57471 0.11718,-0.50536 0.1245,-2.40966 0.007,-2.85646 -0.0513,-0.1831 -0.10987,-0.48338 -0.13184,-0.68114 -0.0293,-0.2124 -0.0806,-0.34424 -0.13916,-0.34424 -0.0952,0 -0.271,-0.53466 -0.38086,-1.13525 -0.0293,-0.16113 -0.0952,-0.39551 -0.15381,-0.52734 -0.13183,-0.32227 -0.12451,-0.71778 0.0293,-0.83497 0.0743,-0.0629 0.28677,-0.0856 0.91574,-0.0856 0.1772,0 0.38747,0.002 0.63699,0.005 0.83498,0.0146 1.47219,0.0586 1.53078,0.10254 0.0513,0.0513 0.0879,0.26366 0.0879,0.56396 0,0.6958 0.22705,1.13526 0.79102,1.5088 0.22705,0.1538 0.51269,0.34423 0.6372,0.43212 0.15381,0.10254 0.39551,0.16113 0.80567,0.19775 0.32226,0.0293 0.71776,0.10253 0.8789,0.16113 0.20508,0.0879 0.54932,0.1172 1.17188,0.1172 1.32568,0.007 3.91846,0.14648 4.87061,0.271 0.46142,0.0586 1.17187,0.10253 1.58203,0.10253 0.13006,0 0.24359,-0.002 0.3425,-0.002 0.72524,0 0.66414,0.10208 0.58034,1.80366 -0.0439,0.8789 -0.11718,1.70653 -0.16112,1.82372 -0.0513,0.12451 -0.10254,0.57861 -0.10988,1.01074 -0.0293,0.87891 -0.0732,1.22314 -0.22704,1.77246 -0.0513,0.19776 -0.13183,1.02538 -0.17578,1.83108 -0.0439,0.80564 -0.10986,1.582 -0.14648,1.72117 -0.10987,0.35153 -0.21973,2.42433 -0.13916,2.5708 0.0439,0.0952 0.25634,0.12453 1.06933,0.16113 0.55663,0.0293 1.24513,0.0952 1.52343,0.16113 0.26167,0.0561 0.5412,0.0794 1.08396,0.0794 0.30802,0 0.70078,-0.007 1.22318,-0.0208 0.58169,-0.0153 0.97781,-0.0245 1.25201,-0.0245 0.50949,0 0.59809,0.0315 0.67425,0.11235 0.12452,0.1172 0.13184,0.2637 0.0952,1.82375 -0.022,0.93015 -0.0366,2.00685 -0.0366,2.38769 l -0.007,0.6958 -1.29638,-0.0366 c -0.71778,-0.022 -1.355,-0.0586 -1.41358,-0.0879 -0.0586,-0.022 -1.77979,-0.59323 -3.82325,-1.27443 -2.51019,-0.8281 -3.4787,-1.15837 -3.93155,-1.15837 -0.31612,0 -0.38095,0.16101 -0.54354,0.42597 l -0.21973,0.35156 -0.007,1.6626 -0.007,1.66259 0.27832,0.28565 c 0.31494,0.32226 0.39551,0.56396 0.29298,0.8496 -0.10987,0.2783 0.14647,0.71046 0.52733,0.91554 0.23437,0.11716 0.3003,0.19776 0.31495,0.37356 0.022,0.227 0.0146,0.23435 -0.40284,0.3149 -0.23437,0.044 -0.57129,0.13185 -0.75439,0.19044 -0.18311,0.0659 -0.59325,0.17576 -0.91553,0.24903 -0.32226,0.0732 -0.64452,0.15383 -0.71045,0.18313 -0.16847,0.0659 -1.20117,0.3076 -1.88965,0.4394 -0.30029,0.0586 -0.71045,0.15383 -0.91552,0.2124 -0.19776,0.0586 -0.52735,0.13186 -0.73243,0.15384 -0.31494,0.044 -0.41015,0.0952 -0.71044,0.41016 -0.41749,0.43944 -0.45411,0.6445 -0.46143,2.37304 0,1.51611 0.0439,1.75781 0.38818,2.1167 0.57129,0.60791 0.74707,0.8789 0.74707,1.15722 0,0.23438 0.0366,0.29297 0.34425,0.49074 0.32226,0.2124 0.38085,0.22704 1.02538,0.22704 0.41016,0 0.77637,-0.0366 0.92285,-0.10254 0.2417,-0.10254 1.00342,-0.76904 1.00342,-0.88623 0,-0.0366 0.0439,-0.11717 0.10255,-0.17577 0.13183,-0.1465 0.4834,-1.355 0.4834,-1.6626 0,-0.1245 -0.044,-0.271 -0.10255,-0.31495 -0.0586,-0.0512 -0.12451,-0.18311 -0.15381,-0.29295 -0.022,-0.1099 -0.13184,-0.25637 -0.26367,-0.3296 -0.28564,-0.16847 -0.44677,-0.4248 -0.41747,-0.68116 0.022,-0.18311 0.0586,-0.21241 0.35155,-0.25634 0.18311,-0.0293 0.54199,-0.0879 0.80567,-0.1245 0.26368,-0.044 0.92285,-0.1172 1.46484,-0.16116 0.54199,-0.0366 1.14258,-0.12451 1.34034,-0.1831 0.19042,-0.0659 0.62255,-0.13914 0.95214,-0.16844 0.37354,-0.0366 0.68116,-0.1099 0.80566,-0.1831 0.10987,-0.0806 0.4541,-0.16116 0.79834,-0.2051 0.33692,-0.0366 0.7544,-0.10986 0.9375,-0.16846 0.18311,-0.0586 0.66651,-0.13914 1.06934,-0.17578 0.41016,-0.044 0.83496,-0.10986 0.95215,-0.16116 0.11719,-0.0439 0.51269,-0.10984 0.87157,-0.14646 0.36622,-0.0439 0.8423,-0.13184 1.06202,-0.19774 0.27832,-0.0806 0.67383,-0.1172 1.28174,-0.1172 0.79102,0 0.91554,0.0146 1.28174,0.19043 0.4834,0.22707 0.62256,0.37354 0.6958,0.71777 0.0293,0.13916 0.0952,0.3296 0.1538,0.4175 0.0513,0.0806 0.13917,0.3149 0.1831,0.5127 0.0513,0.1904 0.1465,0.4687 0.22706,0.6079 0.0732,0.13915 0.13184,0.3369 0.13184,0.43944 0,0.10256 0.0879,0.34426 0.1831,0.54932 0.10254,0.19774 0.1831,0.46144 0.1831,0.57864 0,0.11716 0.0513,0.2783 0.1172,0.3442 0.0659,0.0733 0.14648,0.3369 0.17578,0.5933 0.0293,0.2563 0.10986,0.5859 0.17578,0.7324 0.0659,0.1538 0.11719,0.3296 0.11719,0.4028 0,0.0733 0.0659,0.2564 0.14648,0.4102 0.0806,0.14647 0.14649,0.35155 0.14649,0.44676 0,0.0952 0.0513,0.31494 0.10986,0.4834 0.009,0.024 0.0167,0.0505 0.0244,0.079 h -0.003 q -0.6101,2.5287 -0.22246,3.51385 0.22889,0.71035 0.82459,1.23715 0.66861,0.5924 1.42322,0.7795 0.29648,0.0695 0.58758,0.0695 1.06197,0 2.05252,-0.92514 1.21988,-1.2132 0.83823,-2.45743 -0.0838,-0.27017 -0.26038,-0.56047 h -0.003 c -0.0644,-0.20217 -0.23658,-0.42696 -0.4407,-0.6014 h -0.003 q -0.26145,-0.3013 -0.61023,-0.6217 l -0.45892,-0.41956 q -0.063,-0.0537 -0.1396,-0.0871 -0.10143,-0.0412 -0.2008,-0.0454 h -0.003 q -0.96787,-3.00879 -1.4205,-4.65809 -0.38602,-1.37395 -0.65787,-2.88879 h -0.003 c 0.0665,-0.0218 0.14203,-0.0439 0.22768,-0.0678 0.22652,-0.0614 0.35643,-0.0926 0.53957,-0.0926 0.16619,0 0.37625,0.0258 0.74218,0.078 0.4541,0.0659 1.30371,0.1538 1.88965,0.19776 0.58594,0.0439 1.3916,0.12451 1.79444,0.1831 0.40283,0.0586 1.32568,0.12454 2.05078,0.14649 0.72508,0.0293 1.6333,0.0952 2.01416,0.1538 0.38086,0.0586 1.36962,0.13915 2.19726,0.17579 0.82764,0.044 1.71386,0.10986 1.97754,0.14646 0.26367,0.044 0.74707,0.10256 1.07666,0.13186 0.76904,0.0732 0.86426,0.14648 0.76904,0.64454 -0.0439,0.19774 -0.13183,0.50536 -0.19775,0.68846 -0.13183,0.35889 -0.0952,0.90821 0.0659,1.00344 0.11365,0.0741 0.27395,0.34153 0.37747,0.6089 h -0.003 q 0.003,0.11356 0.0358,0.22446 0.0279,0.0861 0.0716,0.16184 h -0.003 c 0.0361,0.2534 0.0817,0.31734 0.23145,0.3744 0.0597,0.0214 0.15677,0.0327 0.25775,0.0327 0.006,0 0.0123,-4e-5 0.0184,-1e-4 h 0.003 q 0.39735,0.1685 1.62764,0.1685 0.0265,0 0.0534,-4e-5 0.14924,-0.0129 0.26204,-0.0811 h 0.003 c 0.0145,0.0972 0.0522,0.1437 0.12594,0.1437 0.13183,0 0.71778,-0.6592 0.71778,-0.8203 0,-0.0513 0.0733,-0.2344 0.1538,-0.3882 0.13915,-0.24904 0.16115,-0.4248 0.16845,-1.13527 0.007,-0.79833 0,-0.85693 -0.19774,-1.19383 -0.19776,-0.3223 -0.22706,-0.34425 -0.52736,-0.34425 -0.4834,0 -0.55663,-0.10985 -0.65184,-0.98875 -0.0147,-0.16116 -0.0879,-0.4468 -0.15381,-0.6372 -0.15381,-0.42483 -0.53467,-0.67386 -1.13525,-0.7471 -0.21973,-0.0293 -0.56397,-0.0952 -0.76905,-0.1538 -0.19775,-0.0513 -0.61523,-0.1172 -0.91552,-0.1465 -0.3003,-0.0293 -0.84229,-0.10986 -1.2085,-0.1831 -0.35889,-0.0732 -0.92285,-0.1538 -1.24513,-0.1831 -0.32225,-0.022 -0.74706,-0.0879 -0.95214,-0.1465 -0.19776,-0.0513 -0.56396,-0.1172 -0.80566,-0.1465 -0.82764,-0.0879 -2.417,-0.32956 -3.07617,-0.47605 -0.35889,-0.0732 -1.04737,-0.17575 -1.52343,-0.21975 -0.50538,-0.0439 -0.9668,-0.1245 -1.09864,-0.1904 -0.13916,-0.0733 -0.54932,-0.1465 -1.06201,-0.1831 -0.70313,-0.0513 -0.89355,-0.0952 -1.1792,-0.25636 -0.20173,-0.11824 -0.41007,-0.18364 -0.56855,-0.18364 -0.008,0 -0.0166,2e-4 -0.0247,5.4e-4 -0.0351,0.002 -0.0718,0.003 -0.10943,0.003 -0.3161,0 -0.69623,-0.0772 -0.69623,-0.14256 0,-0.0293 0.25635,-0.0806 0.57128,-0.1099 0.30763,-0.022 0.6885,-0.0806 0.84962,-0.1172 0.10553,-0.0283 0.18848,-0.0421 0.2456,-0.0421 0.10541,0 0.12296,0.0471 0.0327,0.13739 -0.0659,0.0659 -0.0293,0.10986 0.15381,0.19046 0.4248,0.1904 0.95947,0.3076 1.3916,0.3076 0.46875,0 1.79443,-0.1831 2.15332,-0.3003 0.26367,-0.0806 0.53467,-0.52 0.53467,-0.86426 0,-0.11719 0.0513,-0.49804 0.10986,-0.84229 0.10986,-0.60791 0.10254,-0.65185 -0.0293,-0.95945 -0.11718,-0.2637 -0.2124,-0.3589 -0.49804,-0.49074 -0.41748,-0.20506 -0.53466,-0.40286 -0.53466,-0.9375 0,-0.54199 -0.0513,-0.70313 -0.271,-0.84961 -0.0816,-0.0509 -0.13004,-0.0783 -0.17686,-0.0783 -0.054,0 -0.10589,0.0365 -0.20401,0.11496 -0.10253,0.0805 -0.33691,0.227 -0.52003,0.32224 -0.1831,0.0952 -0.5786,0.31496 -0.8789,0.49072 -0.3003,0.17578 -0.68114,0.38818 -0.84228,0.46874 -0.57129,0.3003 -1.50146,0.8716 -1.58202,0.9668 -0.0439,0.0586 -0.16114,0.10254 -0.25636,0.10254 -0.0879,0 -0.1831,0.0293 -0.2124,0.0659 -0.0586,0.10254 -1.23779,0.66651 -1.37694,0.66651 -0.0659,0 -0.19777,-0.0366 -0.3003,-0.0806 -0.1465,-0.0732 -0.1831,-0.13916 -0.1831,-0.35156 0.007,-1.05469 -0.0733,-3.88914 -0.1172,-4.0503 -0.0293,-0.12451 -0.007,-0.28564 0.0806,-0.46144 0.19043,-0.41014 0.71777,-0.6152 1.80908,-0.7031 0.46875,-0.0366 0.94483,-0.10255 1.04735,-0.13917 0.10255,-0.0439 0.5054,-0.10983 0.89357,-0.14648 1.58203,-0.17578 3.08349,-0.49805 3.85986,-0.84229 0.90821,-0.3955 1.12793,-0.54196 1.68457,-1.09866 0.79834,-0.80563 1.50147,-1.56 1.50147,-1.6186 0,-0.022 0.16113,-0.24905 0.36621,-0.49807 0.19775,-0.2417 0.41015,-0.51269 0.46875,-0.59323 0.0659,-0.0806 0.19043,-0.24905 0.28564,-0.36624 0.42481,-0.52736 0.93018,-1.23779 0.93018,-1.29639 0,-0.0439 0.0805,-0.16847 0.1831,-0.29297 0.10255,-0.11718 0.18311,-0.25634 0.18311,-0.31494 0,-0.0513 0.0439,-0.13183 0.10254,-0.17578 0.0586,-0.0513 0.13183,-0.19775 0.1538,-0.32228 0.0293,-0.13182 0.0952,-0.28563 0.1465,-0.34422 0.0513,-0.0586 0.13183,-0.2417 0.1831,-0.40284 0.0513,-0.16114 0.1538,-0.41014 0.22705,-0.54931 0.0806,-0.13916 0.13915,-0.30763 0.13915,-0.36621 0,-0.0586 0.0659,-0.21242 0.1465,-0.32959 0.0806,-0.12451 0.14648,-0.26367 0.14648,-0.32227 0,-0.0513 0.0806,-0.28564 0.16845,-0.51269 0.35157,-0.83497 0.43947,-1.15723 0.49073,-1.86037 0.0659,-0.7617 0.13916,-0.93016 0.41014,-0.93016 0.1172,0 0.2051,-0.0732 0.28566,-0.21974 0.0586,-0.11717 0.17578,-0.249 0.25634,-0.29296 0.0806,-0.0439 0.19776,-0.17578 0.25635,-0.29296 0.0586,-0.11718 0.17578,-0.22706 0.25635,-0.25635 0.0879,-0.0293 0.16113,-0.13916 0.19043,-0.3003 0.022,-0.13916 0.10987,-0.28563 0.18311,-0.32959 0.0879,-0.0439 0.13916,-0.1538 0.13916,-0.27099 0,-0.11719 0.0659,-0.27832 0.14648,-0.36621 0.0952,-0.0952 0.16846,-0.30762 0.19775,-0.52734 0.022,-0.20508 0.0659,-0.3882 0.10254,-0.40284 0.0293,-0.022 0.0366,-0.16113 0.0147,-0.30762 -0.0366,-0.20507 -0.0147,-0.28564 0.0879,-0.35888 0.10988,-0.0806 0.1172,-0.11719 0.0366,-0.2124 -0.0586,-0.0659 -0.0732,-0.18311 -0.0366,-0.30762 0.0732,-0.271 0.0879,-1.47217 0.022,-1.70654 -0.0293,-0.10254 -0.0879,-0.57862 -0.13183,-1.06202 -0.0439,-0.48338 -0.13185,-1.07666 -0.19043,-1.31836 -0.16846,-0.68115 -0.32227,-1.52342 -0.46142,-2.5415 -0.0732,-0.51269 -0.16114,-0.97412 -0.2051,-1.02539 -0.0952,-0.13183 -0.24168,-0.65918 -0.24168,-0.87891 0,-0.10254 0.0513,-0.23437 0.11718,-0.28564 0.0952,-0.0806 0.10987,-0.19043 0.0732,-0.58594 -0.022,-0.26367 -0.0952,-0.62256 -0.15381,-0.79834 -0.14649,-0.4248 -0.15381,-1.7505 0,-1.94824 0.13916,-0.19043 0.13916,-0.71776 0,-0.83496 -0.14649,-0.1245 -0.13916,-1.56006 0.0147,-1.80908 0.0512,-0.0879 0.0952,-0.27832 0.0952,-0.41748 0,-0.14649 0.0439,-0.26368 0.10254,-0.28564 0.0879,-0.0366 0.0952,-0.0879 0.022,-0.26368 -0.0659,-0.18312 -0.0586,-0.2417 0.0366,-0.35156 0.0879,-0.0952 0.10254,-0.16846 0.0513,-0.25636 -0.0366,-0.0659 -0.0806,-0.38085 -0.0952,-0.6958 -0.007,-0.31493 -0.044,-0.62987 -0.0806,-0.70312 -0.0732,-0.16845 0.0879,-0.56396 0.31494,-0.75438 0.13184,-0.1172 0.18311,-0.2344 0.19044,-0.46144 0,-0.24902 -0.0366,-0.34423 -0.24903,-0.55664 -0.2124,-0.2124 -0.35157,-0.27832 -0.76904,-0.35156 -0.28565,-0.0586 -0.57863,-0.13184 -0.65918,-0.17578 -0.0806,-0.0439 -0.23438,-0.11718 -0.34425,-0.16113 l -0.20507,-0.0806 v -0.74708 c 0,-0.41747 0.0366,-0.9668 0.0732,-1.23778 0.0366,-0.26368 0.10253,-0.95215 0.13916,-1.53809 0.0439,-0.57861 0.11719,-1.26709 0.17577,-1.53076 0.0659,-0.28565 0.10988,-0.88623 0.1172,-1.50147 0,-1.06933 -0.022,-1.28173 -0.1538,-1.28173 -0.0366,0 -0.16846,-0.0806 -0.29298,-0.18311 -0.14227,-0.1192 -0.32287,-0.17984 -0.51432,-0.17984 -0.17318,0 -0.35524,0.0496 -0.52572,0.15054 -0.13626,0.0779 -0.30703,0.12699 -0.4461,0.12699 -0.0179,0 -0.0353,-8e-4 -0.0519,-0.002 l -0.2417,-0.022 -0.022,-0.52734 c -0.0147,-0.35889 0.0293,-0.7251 0.13916,-1.17188 0.1538,-0.60791 0.16845,-0.80566 0.16845,-3.28125 v -2.63673 l -0.19775,-0.7031 c -0.11719,-0.39552 -0.271,-0.83497 -0.35156,-0.98878 -0.0733,-0.15382 -0.13917,-0.33692 -0.13917,-0.41016 0,-0.0659 -0.0293,-0.13916 -0.0659,-0.16113 -0.0366,-0.0293 -0.16847,-0.26367 -0.29298,-0.52733 -0.27832,-0.59327 -0.30029,-1.00343 -0.0586,-1.25978 0.14647,-0.16112 0.16113,-0.23437 0.13917,-0.85692 -0.022,-0.65187 -0.0147,-0.6885 0.14647,-0.77638 0.0879,-0.0513 0.2124,-0.13182 0.26367,-0.19042 0.0634,-0.06 0.1373,-0.0897 0.21846,-0.0897 0.0971,0 0.2045,0.0425 0.3162,0.12627 0.0952,0.0806 0.2417,0.15382 0.32228,0.1758 0.0806,0.022 0.20507,0.0659 0.27832,0.0952 0.0241,0.0102 0.0447,0.015 0.0618,0.015 0.11816,0 0.0715,-0.22877 -0.1204,-0.49107 -0.22705,-0.30761 -0.2417,-0.70313 -0.0293,-1.11328 0.1758,-0.33691 0.16846,-0.79101 -0.007,-2.3291 -0.0732,-0.62255 -0.0732,-0.81299 0.007,-0.98877 0.10987,-0.24902 0.24903,-0.93018 0.3589,-1.72118 0.13915,-0.95948 0.21972,-1.2964 0.37353,-1.47218 0.0732,-0.0879 0.13917,-0.20508 0.13917,-0.25634 0,-0.0513 0.0513,-0.12452 0.11718,-0.16114 0.0806,-0.0439 0.13182,-0.24902 0.17578,-0.71777 0.0586,-0.66651 0.1831,-1.05469 0.32226,-1.05469 0.15381,0 0.0439,-4.15283 -0.12452,-4.54101 -0.0586,-0.13917 -0.13183,-0.45411 -0.16112,-0.69581 -0.0293,-0.24169 -0.10988,-0.51269 -0.19043,-0.60791 -0.0879,-0.11718 -0.13185,-0.27832 -0.12451,-0.48339 0.007,-0.16114 -0.0293,-0.45411 -0.0879,-0.65186 -0.0806,-0.271 -0.13915,-0.34424 -0.26368,-0.34424 -0.12451,0 -0.16845,-0.0586 -0.20507,-0.25636 -0.0293,-0.13915 -0.0952,-0.25633 -0.1465,-0.25633 -0.1831,0 -0.271,-0.47607 -0.10253,-0.52735 0.0586,-0.022 0.0366,-0.0952 -0.0732,-0.2417 -0.0879,-0.10986 -0.16113,-0.26367 -0.16113,-0.34422 0,-0.0733 -0.0513,-0.15382 -0.10987,-0.1758 -0.12451,-0.0513 -0.4248,-0.57128 -0.55663,-0.95947 -0.0439,-0.15381 -0.19776,-0.4248 -0.33692,-0.60058 -0.13184,-0.17579 -0.2417,-0.38085 -0.2417,-0.45411 0,-0.0659 -0.0732,-0.21972 -0.16846,-0.33691 -0.0952,-0.10986 -0.19775,-0.26367 -0.21972,-0.34423 -0.0879,-0.21973 -0.34424,-0.52003 -1.1206,-1.31104 -0.82765,-0.84229 -0.88624,-0.89356 -1.30372,-1.11328 -0.76904,-0.41748 -1.13525,-0.56398 -1.53808,-0.62988 -0.2417,-0.0439 -0.46876,-0.0952 -0.5127,-0.12452 -0.0439,-0.0293 -0.46875,-0.0659 -0.94483,-0.0879 -0.2369,-0.011 -0.41007,-0.0173 -0.53997,-0.0173 z"
           inkscape:connector-curvature="0"
           style="fill:#ffffff" />
      </g>
    </g>
  </g>
</svg>
