<?xml version="1.0" encoding="UTF-8"?>
<svg width="27px" height="27px" viewBox="0 0 27 27" version="1.1" xmlns="http://www.w3.org/2000/svg" xmlns:xlink="http://www.w3.org/1999/xlink">
    <!-- Generator: Sketch 48.2 (47327) - http://www.bohemiancoding.com/sketch -->
    <title>magnifier</title>
    <desc>Created with Sketch.</desc>
    <defs></defs>
    <g id="Tab-Bar---Tab-1-Selected" stroke="none" stroke-width="1" fill="none" fill-rule="evenodd" transform="translate(-100.000000, -6.000000)">
        <g fill="#79828B" fill-rule="nonzero" id="Tab-2">
            <g transform="translate(89.000000, 0.000000)">
                <g id="magnifier" transform="translate(11.000000, 6.000000)">
                    <path d="M23.796365,18.6974137 C28.0679218,14.4257992 28.0678348,7.47532542 23.796365,3.2037109 C19.5247212,-1.06790363 12.5742868,-1.06790363 8.30273001,3.2037109 C4.67882158,6.8275945 4.12998177,12.2172342 6.65473191,16.4259631 C6.65473191,16.4259631 6.83608389,16.7302148 6.59114999,16.9749731 C5.19382643,18.3722001 1.0015948,22.56449 1.0015948,22.56449 C-0.110958306,23.6769485 -0.375810485,25.2325638 0.610796497,26.219338 L0.780667205,26.3890336 C1.76727419,27.3758078 3.32298718,27.1110444 4.43545331,25.9984989 C4.43545331,25.9984989 8.61881304,21.8150809 10.0132663,20.4207241 C10.2699424,20.1640498 10.5741093,20.3454005 10.5741093,20.3454005 C14.78278,22.8700464 20.1724566,22.3212973 23.796365,18.6974137 Z M10.3253483,16.6747223 C7.16904092,13.5184366 7.1691279,8.38286194 10.3254352,5.22657622 C13.4817426,2.07037748 18.6173524,2.0702905 21.7735728,5.22657622 C24.9298801,8.38277496 24.9298801,13.5184366 21.7735728,16.6747223 C18.6172655,19.8308341 13.4817426,19.8308341 10.3253483,16.6747223 Z" id="Shape"></path>
                    <path d="M11.1183106,10 C10.9729941,10 10.8252685,9.97071243 10.6828772,9.90904976 C10.1140864,9.66222262 9.84797393,8.98931432 10.0887055,8.40603303 C11.6017526,4.73988254 15.7415961,3.01941446 19.3171228,4.57077331 C19.8859136,4.81760045 20.1520261,5.49050875 19.9112945,6.07379003 C19.6704768,6.65707132 19.0143585,6.92974562 18.4453096,6.6830067 C16.0058158,5.6245964 13.1810483,6.79848087 12.1488621,9.29974488 C11.9682704,9.73720584 11.5540881,10 11.1183106,10 Z" id="Shape"></path>
                </g>
            </g>
        </g>
    </g>
</svg>